<svg width="24" height="13" viewBox="0 0 24 13" fill="none" xmlns="http://www.w3.org/2000/svg">
<mask id="mask0_104_1776" style="mask-type:luminance" maskUnits="userSpaceOnUse" x="0" y="0" width="24" height="13">
<path fill-rule="evenodd" clip-rule="evenodd" d="M0 0.000366211H23.9999V13H0V0.000366211Z" fill="white"/>
</mask>
<g mask="url(#mask0_104_1776)">
<path fill-rule="evenodd" clip-rule="evenodd" d="M9.49988 13.0004C9.22288 13.0004 8.99988 12.7724 8.99988 12.5004V1.50037C8.99988 1.22337 9.22288 1.00037 9.49988 1.00037C9.77688 1.00037 9.99988 1.22337 9.99988 1.50037V12.5004C9.99988 12.7724 9.77688 13.0004 9.49988 13.0004ZM6.49988 13.0004C6.22288 13.0004 5.99988 12.7724 5.99988 12.5004V5.50037C5.99988 5.22337 6.22288 5.00037 6.49988 5.00037C6.77688 5.00037 6.99988 5.22337 6.99988 5.50037V12.5004C6.99988 12.7724 6.77688 13.0004 6.49988 13.0004ZM3.49988 13.0004C3.22288 13.0004 2.99988 12.7724 2.99988 12.5004V4.50037C2.99988 4.22337 3.22288 4.00037 3.49988 4.00037C3.77688 4.00037 3.99988 4.22337 3.99988 4.50037V12.5004C3.99988 12.7724 3.77688 13.0004 3.49988 13.0004ZM0.499878 12.0004C0.222878 12.0004 -0.00012207 11.7724 -0.00012207 11.5004V7.50037C-0.00012207 7.22337 0.222878 7.00037 0.499878 7.00037C0.776878 7.00037 0.999878 7.22337 0.999878 7.50037V11.5004C0.999878 11.7724 0.776878 12.0004 0.499878 12.0004ZM12.9999 12.0004H20.4999C21.8789 12.0004 22.9999 10.8754 22.9999 9.50037C22.9999 8.12137 21.8789 7.00037 20.4999 7.00037C19.8589 7.00037 19.2419 7.24637 18.7809 7.69037C18.6249 7.84037 18.3949 7.87137 18.2069 7.77237C18.0199 7.68037 17.9099 7.47337 17.9409 7.26237C17.9779 7.01237 17.9999 6.75837 17.9999 6.50037C17.9999 3.63737 15.8019 1.27237 12.9999 1.01937V12.0004ZM20.4999 13.0004H12.4999C12.2229 13.0004 11.9999 12.7724 11.9999 12.5004V0.500366C11.9999 0.223366 12.2229 0.000366211 12.4999 0.000366211C16.0269 0.00336621 18.9059 2.81537 18.9959 6.34037C19.4649 6.11337 19.9799 5.99637 20.4999 6.00037C22.4309 6.00037 23.9999 7.56537 23.9999 9.50037C23.9999 11.4304 22.4309 13.0004 20.4999 13.0004Z" fill="#1D1D1B"/>
</g>
</svg>
