<svg width="270" height="103" viewBox="0 0 270 103" fill="none" xmlns="http://www.w3.org/2000/svg">
<g clip-path="url(#clip0_104_3297)">
<path fill-rule="evenodd" clip-rule="evenodd" d="M226.692 42.5287C228.067 42.5287 229.192 41.4043 229.192 40.03V12.5437C229.192 11.1694 228.067 10.045 226.692 10.045C225.317 10.045 224.192 11.1694 224.192 12.5437V40.03C224.192 41.4043 225.317 42.5287 226.692 42.5287ZM57.5106 42.5287C58.8859 42.5287 60.0111 41.4043 60.0111 40.03V12.5437C60.0111 11.1694 58.8859 10.045 57.5106 10.045C56.1354 10.045 55.0102 11.1694 55.0102 12.5437V40.03C55.0102 41.4043 56.1354 42.5287 57.5106 42.5287ZM211.689 42.5287C213.064 42.5287 214.19 41.4043 214.19 40.03V12.5437C214.19 11.1694 213.064 10.045 211.689 10.045C210.314 10.045 209.189 11.1694 209.189 12.5437V40.03C209.189 41.4043 210.314 42.5287 211.689 42.5287ZM156.679 42.5287C158.054 42.5287 159.179 41.4043 159.179 40.03V12.5437C159.179 11.1694 158.054 10.045 156.679 10.045C155.304 10.045 154.179 11.1694 154.179 12.5437V40.03C154.179 41.4043 155.304 42.5287 156.679 42.5287ZM171.682 42.5287C173.057 42.5287 174.182 41.4043 174.182 40.03V12.5437C174.182 11.1694 173.057 10.045 171.682 10.045C170.307 10.045 169.181 11.1694 169.181 12.5437V40.03C169.181 41.4043 170.307 42.5287 171.682 42.5287ZM17.5032 95.0025H5.00093V82.5087C5.00093 81.1344 3.87572 80.01 2.50046 80.01C1.12521 80.01 0 81.1344 0 82.5087V97.5013C0 98.8756 1.12521 100 2.50046 100H17.5032C18.8785 100 20.0037 98.8756 20.0037 97.5013C20.0037 96.1269 18.8785 95.0025 17.5032 95.0025ZM267.5 0H252.497C251.122 0 249.996 1.12444 249.996 2.49875C249.996 3.87306 251.122 4.9975 252.497 4.9975H264.999V17.4913C264.999 18.8656 266.124 19.99 267.5 19.99C268.875 19.99 270 18.8656 270 17.4913V2.49875C270 1.12444 268.875 0 267.5 0ZM267.5 79.96C266.124 79.96 264.999 81.0845 264.999 82.4588V94.9525H252.497C251.122 94.9525 249.996 96.077 249.996 97.4513C249.996 98.8256 251.122 99.95 252.497 99.95H267.5C268.875 99.95 270 98.8256 270 97.4513V82.4588C270 81.0845 268.875 79.96 267.5 79.96ZM10.0019 12.5437V40.03C10.0019 41.4043 11.1271 42.5287 12.5023 42.5287C13.8776 42.5287 15.0028 41.4043 15.0028 40.03V12.5437C15.0028 11.1694 13.8776 10.045 12.5023 10.045C11.1271 10.045 10.0019 11.1694 10.0019 12.5437ZM82.5153 42.5287C83.8905 42.5287 85.0157 41.4043 85.0157 40.03V12.5437C85.0157 11.1694 83.8905 10.045 82.5153 10.045C81.14 10.045 80.0148 11.1694 80.0148 12.5437V40.03C80.0148 41.4043 81.14 42.5287 82.5153 42.5287ZM70.013 42.5287C71.3882 42.5287 72.5134 41.4043 72.5134 40.03V12.5437C72.5134 11.1694 71.3882 10.045 70.013 10.045C68.6377 10.045 67.5125 11.1694 67.5125 12.5437V40.03C67.5125 41.4043 68.6377 42.5287 70.013 42.5287ZM112.521 42.5287C113.896 42.5287 115.021 41.4043 115.021 40.03V12.5437C115.021 11.1694 113.896 10.045 112.521 10.045C111.146 10.045 110.02 11.1694 110.02 12.5437V40.03C110.02 41.4043 111.146 42.5287 112.521 42.5287ZM42.5079 42.5287C43.8831 42.5287 45.0083 41.4043 45.0083 40.03V12.5437C45.0083 11.1694 43.8831 10.045 42.5079 10.045C41.1326 10.045 40.0074 11.1694 40.0074 12.5437V40.03C40.0074 41.4043 41.1326 42.5287 42.5079 42.5287ZM97.5181 42.5287C98.8933 42.5287 100.019 41.4043 100.019 40.03V12.5437C100.019 11.1694 98.8933 10.045 97.5181 10.045C96.1428 10.045 95.0176 11.1694 95.0176 12.5437V40.03C95.0176 41.4043 96.1428 42.5287 97.5181 42.5287ZM254.197 87.5062C254.197 88.8806 255.322 90.005 256.698 90.005C258.073 90.005 259.198 88.8806 259.198 87.5062V52.5237H266.699C268.075 52.5237 269.2 51.3993 269.2 50.025C269.2 48.6507 268.075 47.5262 266.699 47.5262H2.50046C1.12521 47.5262 0 48.6507 0 50.025C0 51.3993 1.12521 52.5237 2.50046 52.5237H10.0019V87.5062C10.0019 88.8806 11.1271 90.005 12.5023 90.005C13.8776 90.005 15.0028 88.8806 15.0028 87.5062V52.5237H25.0046V72.5137C25.0046 73.8881 26.1298 75.0125 27.5051 75.0125C28.8803 75.0125 30.0056 73.8881 30.0056 72.5137V52.5237H40.0074V72.5137C40.0074 73.8881 41.1326 75.0125 42.5079 75.0125C43.8831 75.0125 45.0083 73.8881 45.0083 72.5137V52.5237H55.0102V67.5162C55.0102 68.8906 56.1354 70.015 57.5107 70.015C58.8859 70.015 60.0111 68.8906 60.0111 67.5162V52.5237H67.5125V57.5212C67.5125 58.8956 68.6377 60.02 70.013 60.02C71.3882 60.02 72.5134 58.8956 72.5134 57.5212V52.5237H80.0148V72.5137C80.0148 73.8881 81.14 75.0125 82.5153 75.0125C83.8905 75.0125 85.0157 73.8881 85.0157 72.5137V52.5237H95.0176V67.5162C95.0176 68.8906 96.1428 70.015 97.5181 70.015C98.8933 70.015 100.019 68.8906 100.019 67.5162V52.5237H110.02V72.5137C110.02 73.8881 111.146 75.0125 112.521 75.0125C113.896 75.0125 115.021 73.8881 115.021 72.5137V52.5237H125.023V97.5013C125.023 98.8756 126.148 100 127.524 100C128.899 100 130.024 98.8756 130.024 97.5013V52.5237H139.176V65.0175C139.176 66.3918 140.301 67.5162 141.676 67.5162C143.051 67.5162 144.177 66.3918 144.177 65.0175V52.5237H154.179V72.5137C154.179 73.8881 155.304 75.0125 156.679 75.0125C158.054 75.0125 159.179 73.8881 159.179 72.5137V52.5237H169.181V72.5137C169.181 73.8881 170.307 75.0125 171.682 75.0125C173.057 75.0125 174.182 73.8881 174.182 72.5137V52.5237H184.184V67.5162C184.184 68.8906 185.309 70.015 186.685 70.015C188.06 70.015 189.185 68.8906 189.185 67.5162V52.5237H196.686V62.5187C196.686 63.8931 197.812 65.0175 199.187 65.0175C200.562 65.0175 201.687 63.8931 201.687 62.5187V52.5237H209.189V72.5137C209.189 73.8881 210.314 75.0125 211.689 75.0125C213.064 75.0125 214.19 73.8881 214.19 72.5137V52.5237H224.192V67.5162C224.192 68.8906 225.317 70.015 226.692 70.015C228.067 70.015 229.192 68.8906 229.192 67.5162V52.5237H239.194V72.5137C239.194 73.8881 240.32 75.0125 241.695 75.0125C243.07 75.0125 244.195 73.8881 244.195 72.5137V52.5237H254.197V87.5062ZM2.50046 20.04C3.87572 20.04 5.00093 18.9155 5.00093 17.5412V5.04748H17.5032C18.8785 5.04748 20.0037 3.92304 20.0037 2.54873C20.0037 1.17441 18.8785 0.049975 17.5032 0.049975H2.50046C1.12521 0.049975 0 1.17441 0 2.54873V17.5412C0 18.9155 1.12521 20.04 2.50046 20.04ZM141.676 42.5287C143.051 42.5287 144.177 41.4043 144.177 40.03V12.5437C144.177 11.1694 143.051 10.045 141.676 10.045C140.301 10.045 139.176 11.1694 139.176 12.5437V40.03C139.176 41.4043 140.301 42.5287 141.676 42.5287ZM27.5051 42.5287C28.8803 42.5287 30.0056 41.4043 30.0056 40.03V12.5437C30.0056 11.1694 28.8803 10.045 27.5051 10.045C26.1298 10.045 25.0046 11.1694 25.0046 12.5437V40.03C25.0046 41.4043 26.1298 42.5287 27.5051 42.5287ZM199.187 42.5287C200.562 42.5287 201.687 41.4043 201.687 40.03V12.5437C201.687 11.1694 200.562 10.045 199.187 10.045C197.812 10.045 196.686 11.1694 196.686 12.5437V40.03C196.686 41.4043 197.812 42.5287 199.187 42.5287ZM186.685 42.5287C188.06 42.5287 189.185 41.4043 189.185 40.03V12.5437C189.185 11.1694 188.06 10.045 186.685 10.045C185.309 10.045 184.184 11.1694 184.184 12.5437V40.03C184.184 41.4043 185.309 42.5287 186.685 42.5287ZM241.695 42.5287C243.07 42.5287 244.195 41.4043 244.195 40.03V12.5437C244.195 11.1694 243.07 10.045 241.695 10.045C240.32 10.045 239.194 11.1694 239.194 12.5437V40.03C239.194 41.4043 240.32 42.5287 241.695 42.5287ZM259.198 40.03V12.5437C259.198 11.1694 258.073 10.045 256.698 10.045C255.322 10.045 254.197 11.1694 254.197 12.5437V40.03C254.197 41.4043 255.322 42.5287 256.698 42.5287C258.073 42.5287 259.198 41.4043 259.198 40.03ZM125.023 40.03V12.5437C125.023 11.1694 126.148 10.045 127.524 10.045C128.899 10.045 130.024 11.1694 130.024 12.5437V40.03C130.024 41.4043 128.899 42.5287 127.524 42.5287C126.148 42.5287 125.023 41.4043 125.023 40.03Z" fill="#1D1D1B"/>
<path d="M41.2563 100V98.765L44.3893 95.372C44.7533 94.9647 45.022 94.592 45.1953 94.254C45.3686 93.916 45.4553 93.5823 45.4553 93.253C45.4553 92.8283 45.334 92.5077 45.0913 92.291C44.8486 92.0743 44.4976 91.966 44.0383 91.966C43.6223 91.966 43.202 92.0483 42.7773 92.213C42.3613 92.369 41.9453 92.6073 41.5293 92.928L40.9573 91.706C41.33 91.3767 41.8023 91.1167 42.3743 90.926C42.9463 90.7353 43.527 90.64 44.1163 90.64C44.723 90.64 45.2516 90.7397 45.7023 90.939C46.153 91.1383 46.4996 91.4287 46.7423 91.81C46.985 92.1827 47.1063 92.629 47.1063 93.149C47.1063 93.6863 46.9936 94.189 46.7683 94.657C46.543 95.1163 46.1616 95.6363 45.6243 96.217L42.8033 99.207L42.6083 98.648H47.4573V100H41.2563ZM52.0152 100.091C51.4432 100.091 50.8712 99.9957 50.2992 99.805C49.7359 99.6143 49.2722 99.3543 48.9082 99.025L49.4672 97.803C49.8832 98.115 50.3036 98.3533 50.7282 98.518C51.1616 98.6827 51.5992 98.765 52.0412 98.765C52.6132 98.765 53.0552 98.622 53.3672 98.336C53.6792 98.0413 53.8352 97.6253 53.8352 97.088C53.8352 96.7413 53.7616 96.4423 53.6142 96.191C53.4756 95.9397 53.2762 95.7447 53.0162 95.606C52.7562 95.4673 52.4486 95.398 52.0932 95.398C51.7379 95.398 51.3999 95.4673 51.0792 95.606C50.7586 95.736 50.4682 95.931 50.2082 96.191H49.2072V90.744H55.0052V92.057H50.8452V95.112L50.3382 95.034C50.5982 94.722 50.9102 94.4837 51.2742 94.319C51.6382 94.1543 52.0499 94.072 52.5092 94.072C53.0899 94.072 53.5969 94.1977 54.0302 94.449C54.4722 94.7003 54.8146 95.047 55.0572 95.489C55.3086 95.931 55.4342 96.4467 55.4342 97.036C55.4342 97.6427 55.2912 98.18 55.0052 98.648C54.7279 99.1073 54.3336 99.4627 53.8222 99.714C53.3196 99.9653 52.7172 100.091 52.0152 100.091ZM56.8462 100V98.765L59.9792 95.372C60.3432 94.9647 60.6118 94.592 60.7852 94.254C60.9585 93.916 61.0452 93.5823 61.0452 93.253C61.0452 92.8283 60.9238 92.5077 60.6812 92.291C60.4385 92.0743 60.0875 91.966 59.6282 91.966C59.2122 91.966 58.7918 92.0483 58.3672 92.213C57.9512 92.369 57.5352 92.6073 57.1192 92.928L56.5472 91.706C56.9198 91.3767 57.3922 91.1167 57.9642 90.926C58.5362 90.7353 59.1168 90.64 59.7062 90.64C60.3128 90.64 60.8415 90.7397 61.2922 90.939C61.7428 91.1383 62.0895 91.4287 62.3322 91.81C62.5748 92.1827 62.6962 92.629 62.6962 93.149C62.6962 93.6863 62.5835 94.189 62.3582 94.657C62.1328 95.1163 61.7515 95.6363 61.2142 96.217L58.3932 99.207L58.1982 98.648H63.0472V100H56.8462ZM67.4361 100.091C66.8121 100.091 66.2097 100 65.6291 99.818C65.0571 99.6273 64.5847 99.363 64.2121 99.025L64.7841 97.803C65.1914 98.1237 65.6074 98.3663 66.0321 98.531C66.4654 98.687 66.9117 98.765 67.3711 98.765C67.9691 98.765 68.4111 98.6523 68.6971 98.427C68.9831 98.193 69.1261 97.8333 69.1261 97.348C69.1261 96.88 68.9787 96.5333 68.6841 96.308C68.3894 96.0827 67.9344 95.97 67.3191 95.97H66.0971V94.644H67.0981C67.6961 94.644 68.1424 94.5313 68.4371 94.306C68.7404 94.0807 68.8921 93.7427 68.8921 93.292C68.8921 92.8587 68.7621 92.5293 68.5021 92.304C68.2421 92.0787 67.8824 91.966 67.4231 91.966C66.9984 91.966 66.5737 92.0483 66.1491 92.213C65.7244 92.369 65.3127 92.6073 64.9141 92.928L64.3421 91.706C64.7147 91.3767 65.1871 91.1167 65.7591 90.926C66.3311 90.7353 66.9161 90.64 67.5141 90.64C68.1207 90.64 68.6451 90.7397 69.0871 90.939C69.5377 91.1383 69.8844 91.4243 70.1271 91.797C70.3697 92.161 70.4911 92.59 70.4911 93.084C70.4911 93.6387 70.3481 94.111 70.0621 94.501C69.7761 94.8823 69.3731 95.151 68.8531 95.307L68.8401 95.177C69.4467 95.3157 69.9104 95.5843 70.2311 95.983C70.5604 96.373 70.7251 96.8757 70.7251 97.491C70.7251 98.297 70.4261 98.934 69.8281 99.402C69.2387 99.8613 68.4414 100.091 67.4361 100.091ZM76.024 100V92.811H76.414L73.216 97.4L73.229 96.867H78.988V98.18H72.007V96.945L76.336 90.744H77.675V100H76.024ZM83.1949 100.091C82.6229 100.091 82.0509 99.9957 81.4789 99.805C80.9156 99.6143 80.4519 99.3543 80.0879 99.025L80.6469 97.803C81.0629 98.115 81.4833 98.3533 81.9079 98.518C82.3413 98.6827 82.7789 98.765 83.2209 98.765C83.7929 98.765 84.2349 98.622 84.5469 98.336C84.8589 98.0413 85.0149 97.6253 85.0149 97.088C85.0149 96.7413 84.9413 96.4423 84.7939 96.191C84.6553 95.9397 84.4559 95.7447 84.1959 95.606C83.9359 95.4673 83.6283 95.398 83.2729 95.398C82.9176 95.398 82.5796 95.4673 82.2589 95.606C81.9383 95.736 81.6479 95.931 81.3879 96.191H80.3869V90.744H86.1849V92.057H82.0249V95.112L81.5179 95.034C81.7779 94.722 82.0899 94.4837 82.4539 94.319C82.8179 94.1543 83.2296 94.072 83.6889 94.072C84.2696 94.072 84.7766 94.1977 85.2099 94.449C85.6519 94.7003 85.9943 95.047 86.2369 95.489C86.4883 95.931 86.6139 96.4467 86.6139 97.036C86.6139 97.6427 86.4709 98.18 86.1849 98.648C85.9076 99.1073 85.5133 99.4627 85.0019 99.714C84.4993 99.9653 83.8969 100.091 83.1949 100.091ZM91.2888 100.104C90.1275 100.104 89.2262 99.714 88.5848 98.934C87.9522 98.1453 87.6358 97.0143 87.6358 95.541C87.6358 94.5097 87.7832 93.63 88.0778 92.902C88.3812 92.1653 88.8145 91.6063 89.3778 91.225C89.9498 90.835 90.6258 90.64 91.4058 90.64C91.9605 90.64 92.4978 90.731 93.0178 90.913C93.5465 91.095 94.0058 91.3593 94.3958 91.706L93.8238 92.928C93.3992 92.59 92.9875 92.3473 92.5888 92.2C92.1988 92.044 91.8262 91.966 91.4708 91.966C90.7688 91.966 90.2272 92.2737 89.8458 92.889C89.4732 93.4957 89.2868 94.371 89.2868 95.515V96.217L89.1048 95.892C89.1828 95.5193 89.3388 95.1987 89.5728 94.93C89.8068 94.6527 90.0928 94.4403 90.4308 94.293C90.7775 94.137 91.1545 94.059 91.5618 94.059C92.1165 94.059 92.6062 94.189 93.0308 94.449C93.4555 94.7003 93.7892 95.0513 94.0318 95.502C94.2745 95.944 94.3958 96.4553 94.3958 97.036C94.3958 97.634 94.2615 98.167 93.9928 98.635C93.7242 99.0943 93.3558 99.454 92.8878 99.714C92.4285 99.974 91.8955 100.104 91.2888 100.104ZM91.2108 98.778C91.6875 98.778 92.0688 98.6263 92.3548 98.323C92.6495 98.011 92.7968 97.5993 92.7968 97.088C92.7968 96.5767 92.6495 96.1693 92.3548 95.866C92.0688 95.554 91.6832 95.398 91.1978 95.398C90.8772 95.398 90.5912 95.4717 90.3398 95.619C90.0972 95.7577 89.9065 95.957 89.7678 96.217C89.6292 96.4683 89.5598 96.7587 89.5598 97.088C89.5598 97.426 89.6292 97.7207 89.7678 97.972C89.9065 98.2233 90.0972 98.4227 90.3398 98.57C90.5912 98.7087 90.8815 98.778 91.2108 98.778ZM97.8098 100H96.0158L100.488 91.576L100.527 92.096H95.5608V90.744H102.009V91.992L97.8098 100Z" fill="black"/>
<path d="M158.256 100V98.765L161.389 95.372C161.753 94.9647 162.022 94.592 162.195 94.254C162.369 93.916 162.455 93.5823 162.455 93.253C162.455 92.8283 162.334 92.5077 162.091 92.291C161.849 92.0743 161.498 91.966 161.038 91.966C160.622 91.966 160.202 92.0483 159.777 92.213C159.361 92.369 158.945 92.6073 158.529 92.928L157.957 91.706C158.33 91.3767 158.802 91.1167 159.374 90.926C159.946 90.7353 160.527 90.64 161.116 90.64C161.723 90.64 162.252 90.7397 162.702 90.939C163.153 91.1383 163.5 91.4287 163.742 91.81C163.985 92.1827 164.106 92.629 164.106 93.149C164.106 93.6863 163.994 94.189 163.768 94.657C163.543 95.1163 163.162 95.6363 162.624 96.217L159.803 99.207L159.608 98.648H164.457V100H158.256ZM169.015 100.091C168.331 100.091 167.728 99.9913 167.208 99.792C166.688 99.584 166.281 99.285 165.986 98.895C165.7 98.505 165.557 98.0413 165.557 97.504C165.557 96.854 165.77 96.3253 166.194 95.918C166.619 95.502 167.2 95.2463 167.936 95.151L167.884 95.346C167.234 95.216 166.719 94.956 166.337 94.566C165.956 94.1673 165.765 93.6863 165.765 93.123C165.765 92.6117 165.904 92.1697 166.181 91.797C166.467 91.4243 166.853 91.1383 167.338 90.939C167.832 90.7397 168.391 90.64 169.015 90.64C169.639 90.64 170.194 90.7397 170.679 90.939C171.173 91.1383 171.559 91.4243 171.836 91.797C172.122 92.1697 172.265 92.6117 172.265 93.123C172.265 93.695 172.075 94.1803 171.693 94.579C171.312 94.9777 170.801 95.2333 170.159 95.346L170.107 95.151C170.844 95.255 171.42 95.515 171.836 95.931C172.261 96.347 172.473 96.8713 172.473 97.504C172.473 98.0413 172.326 98.505 172.031 98.895C171.745 99.285 171.342 99.584 170.822 99.792C170.302 99.9913 169.7 100.091 169.015 100.091ZM169.015 98.791C169.596 98.791 170.055 98.674 170.393 98.44C170.731 98.1973 170.9 97.8463 170.9 97.387C170.9 96.945 170.723 96.5983 170.367 96.347C170.021 96.087 169.57 95.9223 169.015 95.853C168.461 95.9223 168.006 96.087 167.65 96.347C167.304 96.5983 167.13 96.945 167.13 97.387C167.13 97.8463 167.299 98.1973 167.637 98.44C167.975 98.674 168.435 98.791 169.015 98.791ZM169.015 94.787C169.492 94.709 169.886 94.5487 170.198 94.306C170.51 94.0547 170.666 93.7167 170.666 93.292C170.666 92.85 170.515 92.5163 170.211 92.291C169.917 92.057 169.518 91.94 169.015 91.94C168.513 91.94 168.11 92.057 167.806 92.291C167.512 92.5163 167.364 92.85 167.364 93.292C167.364 93.7167 167.52 94.0547 167.832 94.306C168.144 94.5487 168.539 94.709 169.015 94.787ZM177.109 100.104C175.948 100.104 175.046 99.714 174.405 98.934C173.772 98.1453 173.456 97.0143 173.456 95.541C173.456 94.5097 173.603 93.63 173.898 92.902C174.201 92.1653 174.635 91.6063 175.198 91.225C175.77 90.835 176.446 90.64 177.226 90.64C177.781 90.64 178.318 90.731 178.838 90.913C179.367 91.095 179.826 91.3593 180.216 91.706L179.644 92.928C179.219 92.59 178.808 92.3473 178.409 92.2C178.019 92.044 177.646 91.966 177.291 91.966C176.589 91.966 176.047 92.2737 175.666 92.889C175.293 93.4957 175.107 94.371 175.107 95.515V96.217L174.925 95.892C175.003 95.5193 175.159 95.1987 175.393 94.93C175.627 94.6527 175.913 94.4403 176.251 94.293C176.598 94.137 176.975 94.059 177.382 94.059C177.937 94.059 178.426 94.189 178.851 94.449C179.276 94.7003 179.609 95.0513 179.852 95.502C180.095 95.944 180.216 96.4553 180.216 97.036C180.216 97.634 180.082 98.167 179.813 98.635C179.544 99.0943 179.176 99.454 178.708 99.714C178.249 99.974 177.716 100.104 177.109 100.104ZM177.031 98.778C177.508 98.778 177.889 98.6263 178.175 98.323C178.47 98.011 178.617 97.5993 178.617 97.088C178.617 96.5767 178.47 96.1693 178.175 95.866C177.889 95.554 177.503 95.398 177.018 95.398C176.697 95.398 176.411 95.4717 176.16 95.619C175.917 95.7577 175.727 95.957 175.588 96.217C175.449 96.4683 175.38 96.7587 175.38 97.088C175.38 97.426 175.449 97.7207 175.588 97.972C175.727 98.2233 175.917 98.4227 176.16 98.57C176.411 98.7087 176.702 98.778 177.031 98.778ZM185.229 100V92.811H185.619L182.421 97.4L182.434 96.867H188.193V98.18H181.212V96.945L185.541 90.744H186.88V100H185.229ZM192.699 100.104C191.538 100.104 190.636 99.714 189.995 98.934C189.362 98.1453 189.046 97.0143 189.046 95.541C189.046 94.5097 189.193 93.63 189.488 92.902C189.791 92.1653 190.225 91.6063 190.788 91.225C191.36 90.835 192.036 90.64 192.816 90.64C193.371 90.64 193.908 90.731 194.428 90.913C194.957 91.095 195.416 91.3593 195.806 91.706L195.234 92.928C194.809 92.59 194.398 92.3473 193.999 92.2C193.609 92.044 193.236 91.966 192.881 91.966C192.179 91.966 191.637 92.2737 191.256 92.889C190.883 93.4957 190.697 94.371 190.697 95.515V96.217L190.515 95.892C190.593 95.5193 190.749 95.1987 190.983 94.93C191.217 94.6527 191.503 94.4403 191.841 94.293C192.188 94.137 192.565 94.059 192.972 94.059C193.527 94.059 194.016 94.189 194.441 94.449C194.866 94.7003 195.199 95.0513 195.442 95.502C195.685 95.944 195.806 96.4553 195.806 97.036C195.806 97.634 195.672 98.167 195.403 98.635C195.134 99.0943 194.766 99.454 194.298 99.714C193.839 99.974 193.306 100.104 192.699 100.104ZM192.621 98.778C193.098 98.778 193.479 98.6263 193.765 98.323C194.06 98.011 194.207 97.5993 194.207 97.088C194.207 96.5767 194.06 96.1693 193.765 95.866C193.479 95.554 193.093 95.398 192.608 95.398C192.287 95.398 192.001 95.4717 191.75 95.619C191.507 95.7577 191.317 95.957 191.178 96.217C191.039 96.4683 190.97 96.7587 190.97 97.088C190.97 97.426 191.039 97.7207 191.178 97.972C191.317 98.2233 191.507 98.4227 191.75 98.57C192.001 98.7087 192.292 98.778 192.621 98.778ZM200.026 100.091C199.402 100.091 198.8 100 198.219 99.818C197.647 99.6273 197.175 99.363 196.802 99.025L197.374 97.803C197.781 98.1237 198.197 98.3663 198.622 98.531C199.055 98.687 199.502 98.765 199.961 98.765C200.559 98.765 201.001 98.6523 201.287 98.427C201.573 98.193 201.716 97.8333 201.716 97.348C201.716 96.88 201.569 96.5333 201.274 96.308C200.979 96.0827 200.524 95.97 199.909 95.97H198.687V94.644H199.688C200.286 94.644 200.732 94.5313 201.027 94.306C201.33 94.0807 201.482 93.7427 201.482 93.292C201.482 92.8587 201.352 92.5293 201.092 92.304C200.832 92.0787 200.472 91.966 200.013 91.966C199.588 91.966 199.164 92.0483 198.739 92.213C198.314 92.369 197.903 92.6073 197.504 92.928L196.932 91.706C197.305 91.3767 197.777 91.1167 198.349 90.926C198.921 90.7353 199.506 90.64 200.104 90.64C200.711 90.64 201.235 90.7397 201.677 90.939C202.128 91.1383 202.474 91.4243 202.717 91.797C202.96 92.161 203.081 92.59 203.081 93.084C203.081 93.6387 202.938 94.111 202.652 94.501C202.366 94.8823 201.963 95.151 201.443 95.307L201.43 95.177C202.037 95.3157 202.5 95.5843 202.821 95.983C203.15 96.373 203.315 96.8757 203.315 97.491C203.315 98.297 203.016 98.934 202.418 99.402C201.829 99.8613 201.031 100.091 200.026 100.091ZM208.614 100V92.811H209.004L205.806 97.4L205.819 96.867H211.578V98.18H204.597V96.945L208.926 90.744H210.265V100H208.614ZM215.785 100.091C215.213 100.091 214.641 99.9957 214.069 99.805C213.505 99.6143 213.042 99.3543 212.678 99.025L213.237 97.803C213.653 98.115 214.073 98.3533 214.498 98.518C214.931 98.6827 215.369 98.765 215.811 98.765C216.383 98.765 216.825 98.622 217.137 98.336C217.449 98.0413 217.605 97.6253 217.605 97.088C217.605 96.7413 217.531 96.4423 217.384 96.191C217.245 95.9397 217.046 95.7447 216.786 95.606C216.526 95.4673 216.218 95.398 215.863 95.398C215.507 95.398 215.169 95.4673 214.849 95.606C214.528 95.736 214.238 95.931 213.978 96.191H212.977V90.744H218.775V92.057H214.615V95.112L214.108 95.034C214.368 94.722 214.68 94.4837 215.044 94.319C215.408 94.1543 215.819 94.072 216.279 94.072C216.859 94.072 217.366 94.1977 217.8 94.449C218.242 94.7003 218.584 95.047 218.827 95.489C219.078 95.931 219.204 96.4467 219.204 97.036C219.204 97.6427 219.061 98.18 218.775 98.648C218.497 99.1073 218.103 99.4627 217.592 99.714C217.089 99.9653 216.487 100.091 215.785 100.091Z" fill="black"/>
</g>
<defs>
<clipPath id="clip0_104_3297">
<rect width="270" height="103" fill="white"/>
</clipPath>
</defs>
</svg>
