<svg width="102" height="100" viewBox="0 0 102 100" fill="none" xmlns="http://www.w3.org/2000/svg">
<path fill-rule="evenodd" clip-rule="evenodd" d="M93.2855 0L87.2493 14.0845V93.9638C87.2501 97.2978 84.5471 100 81.2131 100H15.0159L21.0521 89.0767V6.03622C21.0521 2.70221 23.7549 0 27.0883 0H93.2855Z" fill="#F0F0F2"/>
<path fill-rule="evenodd" clip-rule="evenodd" d="M74.372 85.9155H8.37604V93.9638C8.37604 97.2978 11.0783 100 14.4123 100H81.4143" fill="#DADADC"/>
<path fill-rule="evenodd" clip-rule="evenodd" d="M74.5732 85.9155V93.662C74.5732 97.1626 77.4107 100 80.9113 100C84.4113 100 87.2493 97.1626 87.2493 93.662V85.9155" fill="#F0F0F2"/>
<path fill-rule="evenodd" clip-rule="evenodd" d="M66.9014 69.9195H45.1332C44.3002 69.9195 43.6241 69.2437 43.6241 68.4105C43.6241 67.5773 44.3002 66.9014 45.1332 66.9014H66.9014C67.7346 66.9014 68.4105 67.5773 68.4105 68.4105C68.4105 69.2437 67.7346 69.9195 66.9014 69.9195ZM64.7887 60.8652H45.1332C44.3002 60.8652 43.6241 60.1893 43.6241 59.3561C43.6241 58.5229 44.3002 57.8471 45.1332 57.8471H64.7887C65.6219 57.8471 66.2978 58.5229 66.2978 59.3561C66.2978 60.1893 65.6219 60.8652 64.7887 60.8652ZM66.9014 51.8109H45.1332C44.3002 51.8109 43.6241 51.135 43.6241 50.3018C43.6241 49.4686 44.3002 48.7928 45.1332 48.7928H66.9014C67.7346 48.7928 68.4105 49.4686 68.4105 50.3018C68.4105 51.135 67.7346 51.8109 66.9014 51.8109ZM73.8431 42.7565H45.1332C44.3002 42.7565 43.6241 42.0807 43.6241 41.2475C43.6241 40.4143 44.3002 39.7384 45.1332 39.7384H73.8431C74.6763 39.7384 75.3521 40.4143 75.3521 41.2475C75.3521 42.0807 74.6763 42.7565 73.8431 42.7565ZM73.8431 33.7022H30.0427C29.2097 33.7022 28.5336 33.0264 28.5336 32.1932C28.5336 31.36 29.2097 30.6841 30.0427 30.6841H73.8431C74.6763 30.6841 75.3521 31.36 75.3521 32.1932C75.3521 33.0264 74.6763 33.7022 73.8431 33.7022ZM93.6241 0C97.1453 0 100 2.85473 100 6.37585V14.0845H87.2493V6.37585C87.2493 2.85473 90.1032 0 93.6241 0Z" fill="#DADADC"/>
<path fill-rule="evenodd" clip-rule="evenodd" d="M57.9477 56.338V99.9999H21.1268V56.338C21.1268 53.004 23.829 50.3018 27.163 50.3018H51.9115C55.2455 50.3018 57.9477 53.004 57.9477 56.338Z" fill="#E1E1E3"/>
<path fill-rule="evenodd" clip-rule="evenodd" d="M44.165 56.3381H50.1006C50.9896 56.3381 51.7103 57.0589 51.7103 57.9478V64.1852C51.7103 65.0742 50.9896 65.7949 50.1006 65.7949H44.165C43.2761 65.7949 42.5554 65.0742 42.5554 64.1852V57.9478C42.5554 57.0589 43.2761 56.3381 44.165 56.3381Z" fill="#52BBE9"/>
<path fill-rule="evenodd" clip-rule="evenodd" d="M44.165 71.8311H50.1006C50.9896 71.8311 51.7103 72.5518 51.7103 73.4407V79.6781C51.7103 80.5671 50.9896 81.2878 50.1006 81.2878H44.165C43.2761 81.2878 42.5554 80.5671 42.5554 79.6781V73.4407C42.5554 72.5518 43.2761 71.8311 44.165 71.8311Z" fill="#52BBE9"/>
<path fill-rule="evenodd" clip-rule="evenodd" d="M39.839 50.3018V99.9999H21.1268V56.338C21.1268 53.004 23.829 50.3018 27.163 50.3018H39.839Z" fill="#C8C5CC"/>
<path fill-rule="evenodd" clip-rule="evenodd" d="M6.03622 41.2476H30.7847C34.1187 41.2476 36.8209 43.9498 36.8209 47.2838V100H0V47.2838C0 43.9498 2.70221 41.2476 6.03622 41.2476Z" fill="#E1E1E3"/>
<path fill-rule="evenodd" clip-rule="evenodd" d="M14.2638 78.2695H22.5572C24.2244 78.2695 25.5753 79.6206 25.5753 81.2876V99.9999H11.2457V81.2876C11.2457 79.6206 12.5966 78.2695 14.2638 78.2695Z" fill="#AEADB3"/>
<path fill-rule="evenodd" clip-rule="evenodd" d="M22.5571 78.2695H19.539C21.2062 78.2695 22.5571 79.6206 22.5571 81.2876V99.9999H25.5752V81.2876C25.5752 79.6206 24.2243 78.2695 22.5571 78.2695Z" fill="#8B8893"/>
<path fill-rule="evenodd" clip-rule="evenodd" d="M7.64588 47.2837H13.7827C14.6716 47.2837 15.3924 48.0044 15.3924 48.8933V55.1308C15.3924 56.0197 14.6716 56.7404 13.7827 56.7404H7.64588C6.75695 56.7404 6.03622 56.0197 6.03622 55.1308V48.8933C6.03622 48.0044 6.75695 47.2837 7.64588 47.2837Z" fill="#52BBE9"/>
<path fill-rule="evenodd" clip-rule="evenodd" d="M13.7827 47.2837H10.7646C11.6535 47.2837 12.3742 48.0044 12.3742 48.8933V55.1308C12.3742 56.0197 11.6535 56.7404 10.7646 56.7404H13.7827C14.6716 56.7404 15.3924 56.0197 15.3924 55.1308V48.8933C15.3924 48.0044 14.6716 47.2837 13.7827 47.2837Z" fill="#1CABE1"/>
<path fill-rule="evenodd" clip-rule="evenodd" d="M23.0382 47.2837H28.9738C29.8628 47.2837 30.5835 48.0044 30.5835 48.8933V55.1308C30.5835 56.0197 29.8628 56.7404 28.9738 56.7404H23.0382C22.1493 56.7404 21.4286 56.0197 21.4286 55.1308V48.8933C21.4286 48.0044 22.1493 47.2837 23.0382 47.2837Z" fill="#52BBE9"/>
<path fill-rule="evenodd" clip-rule="evenodd" d="M7.64588 62.7766H13.7827C14.6716 62.7766 15.3924 63.4973 15.3924 64.3863V70.6237C15.3924 71.5126 14.6716 72.2334 13.7827 72.2334H7.64588C6.75695 72.2334 6.03622 71.5126 6.03622 70.6237V64.3863C6.03622 63.4973 6.75695 62.7766 7.64588 62.7766Z" fill="#52BBE9"/>
<path fill-rule="evenodd" clip-rule="evenodd" d="M13.7827 62.7766H10.7646C11.6535 62.7766 12.3742 63.4973 12.3742 64.3863V70.6237C12.3742 71.5126 11.6535 72.2334 10.7646 72.2334H13.7827C14.6716 72.2334 15.3924 71.5126 15.3924 70.6237V64.3863C15.3924 63.4973 14.6716 62.7766 13.7827 62.7766Z" fill="#1CABE1"/>
<path fill-rule="evenodd" clip-rule="evenodd" d="M23.0382 62.7766H28.9738C29.8628 62.7766 30.5835 63.4973 30.5835 64.3863V70.6237C30.5835 71.5126 29.8628 72.2334 28.9738 72.2334H23.0382C22.1493 72.2334 21.4286 71.5126 21.4286 70.6237V64.3863C21.4286 63.4973 22.1493 62.7766 23.0382 62.7766Z" fill="#52BBE9"/>
<path fill-rule="evenodd" clip-rule="evenodd" d="M29.2166 62.7766H25.9557C26.9162 62.7766 27.6949 63.4974 27.6949 64.3863V70.6237C27.6949 71.5127 26.9162 72.2334 25.9557 72.2334H29.2166C30.1771 72.2334 30.9557 71.5127 30.9557 70.6237V64.3863C30.9557 63.4974 30.1771 62.7766 29.2166 62.7766ZM29.2166 47.2837H25.9557C26.9162 47.2837 27.6949 48.0044 27.6949 48.8933V55.1308C27.6949 56.0197 26.9162 56.7404 25.9557 56.7404H29.2166C30.1771 56.7404 30.9557 56.0197 30.9557 55.1308V48.8933C30.9557 48.0044 30.1771 47.2837 29.2166 47.2837Z" fill="#1CABE1"/>
<path fill-rule="evenodd" clip-rule="evenodd" d="M87.2493 41.0602V79.0602C87.0064 79.0697 86.7628 79.0743 86.5191 79.0743C76.0179 79.0743 67.505 70.5616 67.505 60.0602C67.505 49.559 76.0179 41.0461 86.5191 41.0461C86.7628 41.0461 87.0064 41.0502 87.2493 41.0602Z" fill="#E1E1E3"/>
<path fill-rule="evenodd" clip-rule="evenodd" d="M86.5191 46.7524C86.7644 46.7524 87.0081 46.7588 87.2493 46.7729V43.4168C87.0081 43.4043 86.7644 43.3987 86.5191 43.3987C77.3171 43.3987 69.8574 50.8584 69.8574 60.0605C69.8574 69.2625 77.3171 76.7222 86.5191 76.7222C86.7644 76.7222 87.0081 76.7166 87.2493 76.7041V73.348C87.0081 73.3621 86.7644 73.3685 86.5191 73.3685C79.1696 73.3685 73.2111 67.4099 73.2111 60.0605C73.2111 52.711 79.1696 46.7524 86.5191 46.7524Z" fill="#E1E1E3"/>
<path fill-rule="evenodd" clip-rule="evenodd" d="M86.5191 75.0502C78.2404 75.0502 71.5292 68.3389 71.5292 60.0603C71.5292 51.7816 78.2404 45.0703 86.5191 45.0703C94.798 45.0703 101.509 51.7816 101.509 60.0603C101.5 68.3349 94.7938 75.0407 86.5191 75.0502Z" fill="#24B378"/>
<mask id="mask0_104_3258" style="mask-type:luminance" maskUnits="userSpaceOnUse" x="83" y="45" width="19" height="31">
<path fill-rule="evenodd" clip-rule="evenodd" d="M83.501 45.0703H101.509V75.0523H83.501V45.0703Z" fill="white"/>
</mask>
<g mask="url(#mask0_104_3258)">
<path fill-rule="evenodd" clip-rule="evenodd" d="M86.5191 45.0703C85.5052 45.0695 84.4945 45.1717 83.501 45.3753C90.471 46.8089 95.4736 52.9442 95.4736 60.0603C95.4736 67.1764 90.471 73.3116 83.501 74.7452C89.1034 75.8959 94.8724 73.7597 98.373 69.2371C101.874 64.7148 102.496 58.5945 99.9772 53.4597C97.4589 48.325 92.2386 45.0703 86.5191 45.0703Z" fill="#19AC66"/>
</g>
<path fill-rule="evenodd" clip-rule="evenodd" d="M84.2296 65.3326C83.8296 65.3326 83.4459 65.1738 83.163 64.8909L80.2149 61.9426C79.8306 61.5615 79.6797 61.005 79.8188 60.4825C79.958 59.9597 80.3666 59.5519 80.8886 59.4126C81.4111 59.2736 81.9685 59.4245 82.3487 59.808L84.2304 61.6897L90.6894 55.2298C91.2789 54.6402 92.2338 54.6402 92.8234 55.2298C93.4129 55.8193 93.4129 56.775 92.8234 57.3644L85.297 64.8909C85.0141 65.1738 84.6304 65.3326 84.2296 65.3326Z" fill="white"/>
<path fill-rule="evenodd" clip-rule="evenodd" d="M78.3325 15.7484H68.8263C67.9931 15.7484 67.3172 15.0731 67.3172 14.2393C67.3172 13.4061 67.9931 12.7303 68.8263 12.7303H78.3325C79.1665 12.7303 79.8415 13.4061 79.8415 14.2393C79.8415 15.0731 79.1665 15.7484 78.3325 15.7484ZM78.3325 10.5633H68.8263C67.9931 10.5633 67.3172 9.88742 67.3172 9.05422C67.3172 8.22102 67.9931 7.54517 68.8263 7.54517H78.3325C79.1665 7.54517 79.8415 8.22102 79.8415 9.05422C79.8415 9.88742 79.1665 10.5633 78.3325 10.5633Z" fill="#24B378"/>
<path fill-rule="evenodd" clip-rule="evenodd" d="M75.7404 28.1729C75.3277 28.1735 74.9332 28.0047 74.6486 27.7059L67.7354 20.4673C67.3181 20.0303 67.2016 19.3872 67.439 18.8317C67.6764 18.276 68.2219 17.916 68.8263 17.916H70.5547C72.5855 17.916 74.2313 16.2701 74.2313 14.2399C74.2313 12.2091 72.5855 10.5633 70.5547 10.5633H68.8263C67.9931 10.5633 67.3173 9.88742 67.3173 9.05422C67.3173 8.22102 67.9931 7.54517 68.8263 7.54517H70.5547C73.9382 7.54517 76.7889 10.0697 77.2 13.4281C77.6102 16.7866 75.4505 19.9226 72.1674 20.7375L76.8313 25.6216C77.2486 26.0578 77.3658 26.7015 77.1277 27.2572C76.8903 27.8128 76.3448 28.1729 75.7404 28.1729Z" fill="#24B378"/>
<path fill-rule="evenodd" clip-rule="evenodd" d="M31.3883 9.05444H60.7779C61.8893 9.05444 62.7899 9.95525 62.7899 11.0665V22.1329C62.7899 23.2442 61.8893 24.145 60.7779 24.145H31.3883C30.2771 24.145 29.3763 23.2442 29.3763 22.1329V11.0665C29.3763 9.95525 30.2771 9.05444 31.3883 9.05444Z" fill="#DADADC"/>
</svg>
