<svg width="33" height="28" viewBox="0 0 33 28" fill="none" xmlns="http://www.w3.org/2000/svg">
<path fill-rule="evenodd" clip-rule="evenodd" d="M29.463 8.67954C29.463 8.19654 29.071 7.80454 28.588 7.80454H4.12417C3.64117 7.80454 3.24917 8.19654 3.24917 8.67954C3.24917 9.16254 3.64117 9.55454 4.12417 9.55454H28.588C28.8202 9.55454 29.0436 9.46354 29.2081 9.29671C29.372 9.13279 29.463 8.91112 29.463 8.67954ZM19.2663 12.6579C19.2681 12.4257 19.1747 12.2023 19.0108 12.0384C18.8469 11.8739 18.6235 11.7829 18.3913 11.7829H4.12417C3.64117 11.7829 3.24917 12.1749 3.24917 12.6579C3.24917 13.1403 3.64117 13.5329 4.12417 13.5329H18.3913C18.6235 13.5329 18.8469 13.4395 19.0108 13.2756C19.1747 13.1111 19.2681 12.8906 19.2663 12.6579ZM18.0723 16.6292C18.0723 16.397 17.9789 16.1736 17.8144 16.0097C17.6505 15.8458 17.4294 15.7542 17.1973 15.7542H4.12417C3.64117 15.7542 3.24917 16.1462 3.24917 16.6292C3.24917 17.1128 3.64117 17.5042 4.12417 17.5042H17.1973C17.4294 17.5042 17.6505 17.4132 17.8144 17.2493C17.9789 17.0854 18.0723 16.862 18.0723 16.6292ZM10.1448 4.70529C10.1424 4.93804 10.2358 5.16146 10.3997 5.32537C10.5636 5.48929 10.787 5.58262 11.0198 5.58029H21.693C22.176 5.58029 22.568 5.19062 22.568 4.70529C22.568 4.22229 22.176 3.83029 21.693 3.83029H11.0198C10.787 3.83029 10.5636 3.92362 10.3997 4.08812C10.2358 4.25204 10.1424 4.47546 10.1448 4.70529ZM32.7122 0.583455V22.9525C32.7122 23.2763 32.4526 23.5359 32.1288 23.5359H29.6911V21.7293C30.6343 20.6991 31.1558 19.3545 31.1558 17.9604C31.1605 15.4468 29.4992 13.2365 27.0842 12.5465C24.6709 11.8535 22.0891 12.8486 20.7655 14.9819C19.4413 17.1169 19.6945 19.872 21.385 21.7293V23.5359H0.583333C0.259583 23.5359 0 23.2763 0 22.9525V0.583455C0 0.259705 0.259583 0.00012207 0.583333 0.00012207H32.1288C32.4526 0.00012207 32.7122 0.259705 32.7122 0.583455ZM23.1309 23.0278V27.0773C23.1309 27.2844 23.24 27.4757 23.4179 27.5807C23.5976 27.6857 23.8163 27.6875 23.9989 27.5877L25.1154 26.97C25.3773 26.8241 25.6987 26.8241 25.963 26.97L27.0772 27.5877C27.2598 27.6875 27.4785 27.6857 27.6558 27.5807C27.8337 27.4757 27.9434 27.2844 27.9434 27.0773V23.0278C26.4233 23.7616 24.6528 23.7616 23.1309 23.0278ZM29.4058 17.9604C29.4058 20.0954 27.6745 21.829 25.5372 21.829C23.4016 21.829 21.6679 20.0954 21.6679 17.9604C21.6679 15.823 23.4016 14.0888 25.5372 14.0888C27.6745 14.0911 29.4058 15.823 29.4058 17.9604Z" fill="#167F71"/>
</svg>
