<svg width="28" height="28" viewBox="0 0 28 28" fill="none" xmlns="http://www.w3.org/2000/svg">
<path fill-rule="evenodd" clip-rule="evenodd" d="M28 14C28 21.7338 21.7338 28 14 28C6.26617 28 0 21.7338 0 14C0 6.26617 6.26617 0 14 0C21.7338 0 28 6.26617 28 14Z" fill="#50B748"/>
<path fill-rule="evenodd" clip-rule="evenodd" d="M16.9441 27.6718C17.2124 27.617 17.4819 27.5575 17.7456 27.4898C18.1971 27.3661 18.6393 27.2156 19.0721 27.0476C19.5096 26.8785 19.9343 26.6871 20.3484 26.4783C20.7673 26.2636 21.1733 26.0315 21.5653 25.7806C21.9573 25.5298 22.3353 25.2568 22.7039 24.9651C23.0691 24.6781 23.4203 24.3678 23.7528 24.04C24.0899 23.7156 24.4084 23.3738 24.7094 23.0191C25.0104 22.6633 25.2928 22.29 25.5529 21.9026C25.8166 21.52 26.0628 21.1233 26.2868 20.7126C26.5096 20.3031 26.7149 19.8831 26.8969 19.455C27.0801 19.0221 27.2388 18.5846 27.3753 18.1378C27.4943 17.7458 27.5946 17.3538 27.6809 16.9525L19.3591 8.63531C17.9416 7.20964 16.0143 6.41164 14.0041 6.41164C11.9893 6.40697 10.0584 7.20964 8.6351 8.63531C7.21526 10.0575 6.4126 11.9848 6.4126 13.9996C6.4126 16.0098 7.21526 17.9418 8.6351 19.364L16.9441 27.6671V27.6718Z" fill="#10A711"/>
<path fill-rule="evenodd" clip-rule="evenodd" d="M17.4546 11.6667C17.3449 11.676 17.2399 11.7168 17.1489 11.7857L12.8883 14.9847L10.9143 13.006C10.4861 12.565 9.64378 13.4027 10.0894 13.8308L12.4228 16.1642C12.6281 16.3648 12.9478 16.3882 13.1846 16.219L17.8513 12.719C18.2433 12.4367 18.0018 11.676 17.5141 11.6667H17.4546ZM14.0001 6.41199C15.9414 6.41199 17.8781 7.15515 19.3644 8.63565C20.7854 10.0578 21.5881 11.9852 21.5881 14C21.5881 16.0148 20.7854 17.9422 19.3644 19.3643C17.9423 20.7853 16.0149 21.588 14.0001 21.588C11.9853 21.588 10.0579 20.7853 8.63578 19.3643C7.21478 17.9422 6.41211 16.0148 6.41211 14C6.41211 11.9852 7.21478 10.0578 8.63578 8.63565C10.0579 7.20999 11.9899 6.41199 14.0001 6.41199Z" fill="white"/>
</svg>
