<svg width="14" height="16" viewBox="0 0 14 16" fill="none" xmlns="http://www.w3.org/2000/svg">
<path fill-rule="evenodd" clip-rule="evenodd" d="M11.7656 12.5714L10.2856 14.0583V13.1429C10.2856 12.828 10.5422 12.5714 10.857 12.5714H11.7656ZM3.99988 2.28571C3.05359 2.28571 2.28559 3.05371 2.28559 4V12.5714H1.71416C1.39931 12.5714 1.14274 12.3149 1.14274 12V1.71429C1.14274 1.39943 1.39931 1.14286 1.71416 1.14286H9.71416C10.029 1.14286 10.2856 1.39943 10.2856 1.71429V2.28571H3.99988ZM9.71416 0H1.71416C0.767878 0 -0.00012207 0.768 -0.00012207 1.71429V12C-0.00012207 12.9463 0.767878 13.7143 1.71416 13.7143H2.28559V14.2857C2.28559 15.232 3.05359 16 3.99988 16H9.71416C9.86616 16 10.0113 15.9417 10.1204 15.8349L13.549 12.4063C13.6564 12.2971 13.7142 12.152 13.7142 12V4C13.7142 3.05371 12.9462 2.28571 11.9999 2.28571H11.4284V1.71429C11.4284 0.768 10.6604 0 9.71416 0Z" fill="#202244"/>
</svg>
