<svg width="22" height="14" viewBox="0 0 22 14" fill="none" xmlns="http://www.w3.org/2000/svg">
<path fill-rule="evenodd" clip-rule="evenodd" d="M1.28588 7.04582C1.9633 8.22137 5.08078 12.8274 10.8158 12.8274C16.5508 12.8274 19.6688 8.22137 20.3462 7.04582C19.6688 5.87072 16.5508 1.26472 10.8158 1.26472C5.08078 1.26472 1.9633 5.87072 1.28588 7.04582ZM10.8158 13.9998C3.50014 13.9998 0.202911 7.54395 0.066976 7.27163C-0.022895 7.09234 -0.022895 6.90988 0.066976 6.73059C0.202911 6.45827 3.50014 -0.000244141 10.8158 -0.000244141C18.1315 -0.000244141 21.4287 6.45827 21.5651 6.73059C21.6545 6.90988 21.6545 7.09234 21.5651 7.27163C21.4287 7.5873 18.1315 13.9998 10.8158 13.9998Z" fill="#202244"/>
<path fill-rule="evenodd" clip-rule="evenodd" d="M10.8159 2.53008C8.33199 2.53008 6.29973 4.56234 6.29973 7.04621C6.29973 9.53008 8.33199 11.5623 10.8159 11.5623C13.2997 11.5623 15.332 9.53008 15.332 7.04621C15.332 4.56234 13.2997 2.53008 10.8159 2.53008ZM10.8159 12.7374C7.65457 12.7374 5.12463 10.1614 5.12463 7.04621C5.12463 3.93098 7.70063 1.35498 10.8159 1.35498C13.9311 1.35498 16.5075 3.93098 16.5075 7.04621C16.5075 10.1614 13.9771 12.7374 10.8159 12.7374Z" fill="#202244"/>
<path fill-rule="evenodd" clip-rule="evenodd" d="M10.8158 10.2072C9.09925 10.2072 7.65454 8.80631 7.65454 7.04593C7.65454 6.7307 7.92641 6.45838 8.24209 6.45838C8.55777 6.45838 8.82964 6.7307 8.82964 7.04593C8.82964 8.12889 9.6868 8.98877 10.7698 8.98877C11.8554 8.98877 12.7122 8.12889 12.7122 7.04593C12.7122 5.96341 11.8554 5.10354 10.7698 5.10354C10.4541 5.10354 10.1845 4.83438 10.1845 4.51599C10.1845 4.20031 10.4541 3.93115 10.7698 3.93115C12.4863 3.93115 13.9311 5.32935 13.9311 7.09244C13.9311 8.85238 12.5329 10.2072 10.8158 10.2072Z" fill="#202244"/>
</svg>
