<svg width="19" height="20" viewBox="0 0 19 20" fill="none" xmlns="http://www.w3.org/2000/svg">
<path fill-rule="evenodd" clip-rule="evenodd" d="M7.92189 18.2581H3.92189C2.62489 18.2541 1.57389 17.2071 1.56589 15.9101V7.95305C1.56589 7.51905 1.76189 7.10905 2.09389 6.83205L2.80089 6.30805C3.05889 6.03505 3.08189 5.61705 2.86289 5.31205C2.64089 5.00805 2.23389 4.90605 1.89489 5.06605L1.17589 5.60505C0.444893 6.16805 0.0158932 7.03105 -0.000106812 7.95305V15.9181C0.00389319 18.0821 1.75789 19.8361 3.92189 19.8401H7.92189C8.35489 19.8401 8.70289 19.4881 8.70289 19.0591C8.70289 18.6251 8.35489 18.2741 7.92189 18.2741V18.2581Z" fill="#4AA6DD"/>
<path fill-rule="evenodd" clip-rule="evenodd" d="M18.793 7.93425C18.781 7.02325 18.363 6.16025 17.652 5.58625L11.645 0.79725C10.324 -0.26575 8.44101 -0.26575 7.12101 0.79725L5.21901 2.18025C4.85901 2.43725 4.77701 2.93425 5.03501 3.29325C5.29301 3.64825 5.78901 3.73025 6.14801 3.47325L8.07801 2.03125C8.83601 1.40625 9.93001 1.40625 10.688 2.03125L16.695 6.82025C17.043 7.09825 17.246 7.51225 17.254 7.95325V15.9183C17.254 17.2153 16.199 18.2663 14.906 18.2663H13.121C12.938 18.2663 12.793 18.1173 12.793 17.9342V14.3442C12.793 13.1992 11.867 12.2692 10.723 12.2662H8.11301C7.56201 12.2662 7.03501 12.4843 6.64501 12.8752C6.25401 13.2662 6.03501 13.7933 6.03501 14.3442V15.7192C6.03501 16.1483 6.38701 16.5002 6.81601 16.5002C7.25001 16.5002 7.60201 16.1483 7.60201 15.7192V14.3442C7.59801 14.2072 7.64801 14.0782 7.74601 13.9803C7.84001 13.8872 7.96901 13.8322 8.10501 13.8322H10.715C10.992 13.8322 11.219 14.0592 11.219 14.3363V17.9342C11.223 18.9842 12.074 19.8323 13.121 19.8323H14.859C17.027 19.8323 18.781 18.0742 18.781 15.9102L18.793 7.93425Z" fill="#4AA6DD"/>
</svg>
