<svg width="18" height="20" viewBox="0 0 18 20" fill="none" xmlns="http://www.w3.org/2000/svg">
<path fill-rule="evenodd" clip-rule="evenodd" d="M5.238 0.105643C5.594 0.105643 5.891 0.379643 5.93 0.734643V1.69964H9.86C10.242 1.69964 10.547 2.01264 10.547 2.39864C10.547 2.78564 10.242 3.09864 9.86 3.09864H5.914V3.79764C5.914 3.98064 5.84 4.16064 5.707 4.29364C5.578 4.42664 5.402 4.49664 5.219 4.49664L5.117 4.48464C4.789 4.42664 4.543 4.13364 4.547 3.78564V0.734643L4.566 0.629643C4.648 0.324643 4.922 0.105643 5.238 0.105643ZM4.848 10.6136L4.957 10.6216C5.148 10.6456 5.328 10.7346 5.465 10.8716C5.629 11.0396 5.723 11.2626 5.723 11.5006C5.723 11.9886 5.332 12.3836 4.852 12.3836C4.371 12.3836 3.984 11.9886 3.984 11.5006C3.984 11.0126 4.371 10.6136 4.852 10.6136H4.848ZM9.016 10.6136L9.125 10.6216C9.555 10.6766 9.887 11.0476 9.887 11.5006C9.887 11.9886 9.496 12.3836 9.016 12.3836C8.539 12.3836 8.148 11.9886 8.148 11.5006C8.148 11.0126 8.539 10.6136 9.016 10.6136ZM13.188 10.6136L13.297 10.6216C13.488 10.6456 13.664 10.7346 13.805 10.8716C13.969 11.0396 14.063 11.2626 14.063 11.5006C14.063 11.9886 13.672 12.3836 13.192 12.3836C12.711 12.3836 12.321 11.9886 12.321 11.5006C12.321 11.0126 12.711 10.6136 13.192 10.6136H13.188ZM4.848 14.1956L4.957 14.2036C5.148 14.2276 5.328 14.3166 5.465 14.4536C5.629 14.6216 5.723 14.8486 5.723 15.0826C5.723 15.5706 5.332 15.9656 4.852 15.9656C4.371 15.9656 3.984 15.5706 3.984 15.0826C3.984 14.5946 4.371 14.1996 4.852 14.1996L4.848 14.1956ZM9.016 14.1996L9.125 14.2036C9.555 14.2586 9.887 14.6336 9.887 15.0826C9.887 15.5706 9.496 15.9656 9.016 15.9656C8.539 15.9656 8.148 15.5706 8.148 15.0826C8.148 14.5946 8.539 14.1996 9.016 14.1996ZM13.188 14.1956L13.297 14.2036C13.488 14.2276 13.664 14.3166 13.805 14.4536C13.969 14.6216 14.063 14.8486 14.063 15.0826C14.063 15.5706 13.672 15.9656 13.192 15.9656C12.711 15.9656 12.321 15.5706 12.321 15.0826C12.321 14.5946 12.711 14.1996 13.192 14.1996L13.188 14.1956ZM12.793 0.000642603C13.172 0.0236426 13.461 0.348643 13.453 0.734643V1.77064C16.461 2.06264 18 3.72764 18 6.71564V14.9846C18 18.3136 16.106 20.0006 12.375 20.0006H5.625C1.895 20.0006 0 18.3136 0 14.9846V6.71564C0 4.72364 0.68 3.30164 2.07 2.46964L2.168 2.41464C2.367 2.32064 2.605 2.32864 2.801 2.44164C3.031 2.57464 3.168 2.82864 3.152 3.09864C3.137 3.36364 2.973 3.60264 2.73 3.70764C1.809 4.25464 1.375 5.21164 1.375 6.71564V6.98064H14.063C14.442 6.98064 14.746 7.29364 14.746 7.68064C14.746 8.06664 14.442 8.37964 14.063 8.37964H1.375V14.9846C1.375 17.5236 2.609 18.5746 5.625 18.5946H12.375C15.348 18.5946 16.617 17.5166 16.617 14.9776V6.70764C16.617 4.49664 15.653 3.42664 13.453 3.16864V3.84064C13.403 4.19964 13.094 4.46164 12.738 4.44564C12.383 4.43464 12.094 4.14864 12.071 3.78564V0.672643L12.082 0.562643C12.11 0.418643 12.184 0.285643 12.293 0.184643C12.43 0.0596426 12.61 -0.0073574 12.793 0.000642603Z" fill="#545454"/>
</svg>
