<svg width="38" height="38" viewBox="0 0 38 38" fill="none" xmlns="http://www.w3.org/2000/svg">
<rect width="38" height="38" rx="10" fill="#FF6B00"/>
<path fill-rule="evenodd" clip-rule="evenodd" d="M18.6429 26.7143C17.9325 26.7143 17.3571 26.1389 17.3571 25.4286C17.3571 24.7182 17.9325 24.1429 18.6429 24.1429C19.3532 24.1429 19.9286 24.7182 19.9286 25.4286C19.9286 26.1389 19.3532 26.7143 18.6429 26.7143ZM27.6429 24.7857H21.1236C20.835 23.6504 19.8129 22.8571 18.6429 22.8571C17.4729 22.8571 16.4507 23.6504 16.1621 24.7857H9.64286C9.28864 24.7857 9 25.0744 9 25.4286C9 25.7828 9.28864 26.0714 9.64286 26.0714H16.1621C16.4507 27.2067 17.4729 28 18.6429 28C19.8129 28 20.835 27.2067 21.1236 26.0714H27.6429C27.9971 26.0714 28.2857 25.7828 28.2857 25.4286C28.2857 25.0744 27.9971 24.7857 27.6429 24.7857ZM25.0714 20.2857C24.3611 20.2857 23.7857 19.7104 23.7857 19C23.7857 18.2896 24.3611 17.7143 25.0714 17.7143C25.7818 17.7143 26.3571 18.2896 26.3571 19C26.3571 19.7104 25.7818 20.2857 25.0714 20.2857ZM27.6429 18.3571H27.5522C27.2636 17.2219 26.2414 16.4286 25.0714 16.4286C23.9014 16.4286 22.8793 17.2219 22.5906 18.3571H9.64286C9.28864 18.3571 9 18.6458 9 19C9 19.3542 9.28864 19.6429 9.64286 19.6429H22.5906C22.8793 20.7781 23.9014 21.5714 25.0714 21.5714C26.2414 21.5714 27.2636 20.7781 27.5522 19.6429H27.6429C27.9971 19.6429 28.2857 19.3542 28.2857 19C28.2857 18.6458 27.9971 18.3571 27.6429 18.3571ZM12.2143 11.2857C12.9246 11.2857 13.5 11.8611 13.5 12.5714C13.5 13.2818 12.9246 13.8571 12.2143 13.8571C11.5039 13.8571 10.9286 13.2818 10.9286 12.5714C10.9286 11.8611 11.5039 11.2857 12.2143 11.2857ZM9.64286 13.2143H9.7335C10.0221 14.3496 11.0443 15.1429 12.2143 15.1429C13.3843 15.1429 14.4064 14.3496 14.6951 13.2143H27.6429C27.9971 13.2143 28.2857 12.9256 28.2857 12.5714C28.2857 12.2172 27.9971 11.9286 27.6429 11.9286H14.6951C14.4064 10.7933 13.3843 10 12.2143 10C11.0443 10 10.0221 10.7933 9.7335 11.9286H9.64286C9.28864 11.9286 9 12.2172 9 12.5714C9 12.9256 9.28864 13.2143 9.64286 13.2143Z" fill="#E8F1FF"/>
</svg>
