<svg width="19" height="24" viewBox="0 0 19 24" fill="none" xmlns="http://www.w3.org/2000/svg">
<mask id="mask0_104_1787" style="mask-type:luminance" maskUnits="userSpaceOnUse" x="0" y="1" width="20" height="23">
<path fill-rule="evenodd" clip-rule="evenodd" d="M0.000305176 1.04053H19.002V23.9221H0.000305176V1.04053Z" fill="white"/>
</mask>
<g mask="url(#mask0_104_1787)">
<path fill-rule="evenodd" clip-rule="evenodd" d="M14.5273 13.8281C14.7383 14.3871 14.8793 14.9691 14.9493 15.5621L15.0933 13.7931L14.5273 13.8281ZM11.5043 19.4331L12.5703 20.4961C13.4963 19.3511 14.0003 17.9181 14.0003 16.4461C14.0003 15.4461 13.7773 14.4851 13.3403 13.5861C13.2613 13.4371 13.2693 13.2581 13.3553 13.1141C13.4373 12.9691 13.5903 12.8751 13.7573 12.8681L15.6093 12.7661C15.7543 12.7581 15.8903 12.8121 15.9963 12.9141C16.0973 13.0191 16.1483 13.1601 16.1363 13.3051L15.6873 18.8081C15.6523 19.2311 15.8433 19.4571 16.0113 19.5751C16.2853 19.7621 16.6793 19.7971 16.9723 19.6571C17.2343 19.5321 17.3903 19.2851 17.4143 18.9501L17.9963 11.8831C18.0153 11.6331 17.9293 11.3901 17.7543 11.2151C17.5783 11.0351 17.3323 10.9421 17.0823 10.9531L12.3043 11.2191C12.1013 11.2351 11.9143 11.1251 11.8243 10.9421C11.7343 10.7621 11.7653 10.5431 11.9023 10.3911L14.5273 7.40709C14.7423 7.1601 14.8393 6.82809 14.7893 6.49609C14.7463 6.19609 14.5863 5.93409 14.3633 5.79709V5.7931C12.2773 4.5821 10.1913 3.37109 8.10231 2.16009C7.77731 1.96909 7.36731 2.00809 7.09031 2.2581L4.02731 4.98909C3.55531 5.41009 3.69431 5.90709 3.96431 6.20309C4.23031 6.5041 4.71131 6.70309 5.18431 6.28209L7.50731 4.2151C7.6683 4.07109 7.90231 4.04709 8.09031 4.15709L10.0073 5.27009C10.1363 5.3441 10.2263 5.47309 10.2503 5.62109C10.2733 5.77009 10.2303 5.9181 10.1323 6.03209L6.7423 9.88309C6.6683 9.9691 6.5623 10.0281 6.44831 10.0431C5.34431 10.2231 4.30931 10.6841 3.43831 11.3831L4.5043 12.4501C5.36731 11.8011 6.41831 11.4531 7.49631 11.4531C9.47731 11.4371 11.2773 12.6101 12.0623 14.4261C12.8083 16.1141 12.5903 17.9921 11.5043 19.4331ZM12.5933 21.7311C12.4613 21.7261 12.3363 21.6761 12.2423 21.5821L10.4723 19.8171C10.2853 19.6291 10.2773 19.3251 10.4573 19.1291C11.5313 17.9651 11.8003 16.2691 11.1483 14.8281C10.5193 13.3751 9.07831 12.4421 7.49631 12.4531C6.50031 12.4531 5.54731 12.8251 4.80931 13.4921C4.60931 13.6721 4.30931 13.6641 4.11731 13.4761L2.35231 11.7111C2.25431 11.6141 2.20331 11.4851 2.20331 11.3481C2.20731 11.2151 2.26231 11.0861 2.36231 10.9921C3.40231 10.0121 4.70331 9.35209 6.10931 9.08609L8.9803 5.82809L7.90231 5.2001L5.85231 7.02809C4.93831 7.84009 3.83631 7.5631 3.21931 6.86809C2.60231 6.1761 2.45331 5.0511 3.36231 4.24209L6.42231 1.51609C7.02731 0.977095 7.90531 0.887095 8.6053 1.29309C13.4333 4.09009 14.5863 4.76209 14.8903 4.95309L14.8943 4.94609C15.3673 5.2391 15.6913 5.75009 15.7813 6.34809C15.8713 6.97309 15.6913 7.59809 15.2813 8.0631L13.4413 10.1531L17.0233 9.9531C17.5623 9.9181 18.0933 10.1211 18.4683 10.5121C18.8473 10.8991 19.0393 11.4261 18.9963 11.9611L18.4143 19.0281C18.3553 19.7231 17.9883 20.2821 17.4023 20.5581C16.7653 20.8511 16.0233 20.7891 15.4453 20.3991C14.9063 20.0241 14.6323 19.4181 14.6873 18.7261L14.7073 18.5191C14.3753 19.6641 13.7773 20.7071 12.9573 21.5711C12.8673 21.6721 12.7383 21.7261 12.6013 21.7311H12.5933ZM1.80131 13.3361C1.27331 14.2781 1.00031 15.3361 1.00031 16.4421C1.00031 18.8751 2.28031 21.0121 4.43431 22.1491C6.3983 23.1921 8.7113 23.1721 10.6053 22.1371L9.48731 21.0241C8.86231 21.2971 8.18431 21.4371 7.50031 21.4421C5.74631 21.4501 4.11731 20.5281 3.22331 19.0191C2.37531 17.6011 2.26631 15.9221 2.91431 14.4531L1.80131 13.3361ZM7.5233 23.9221C6.2803 23.9221 5.05931 23.6181 3.96431 23.0351C1.48031 21.7191 0.000305176 19.2541 0.000305176 16.4421C0.000305176 14.9261 0.448305 13.4811 1.30131 12.2541C1.38231 12.1331 1.51631 12.0551 1.66431 12.0391C1.81231 12.0281 1.95731 12.0821 2.06231 12.1871L3.87131 13.9961C4.02731 14.1531 4.0623 14.3901 3.96131 14.5861C3.30131 15.8171 3.3483 17.2821 4.0823 18.5041C4.79731 19.7111 6.09831 20.4461 7.50031 20.4421C8.1553 20.4421 8.7803 20.2851 9.3553 19.9811C9.54731 19.8751 9.7893 19.9101 9.94131 20.0671L11.7613 21.8751C11.8673 21.9811 11.9223 22.1291 11.9063 22.2781C11.8943 22.4261 11.8123 22.5581 11.6913 22.6441C10.4613 23.4811 9.00731 23.9261 7.5233 23.9221Z" fill="#1D1D1B"/>
</g>
<mask id="mask1_104_1787" style="mask-type:luminance" maskUnits="userSpaceOnUse" x="12" y="0" width="7" height="6">
<path fill-rule="evenodd" clip-rule="evenodd" d="M12.7852 0.000244141H18.3672V5.50414H12.7852V0.000244141Z" fill="white"/>
</mask>
<g mask="url(#mask1_104_1787)">
<path fill-rule="evenodd" clip-rule="evenodd" d="M15.5742 0.930122C14.5902 0.930122 13.7852 1.73112 13.7852 2.71512C13.7852 3.70712 14.5862 4.50812 15.5742 4.50812C16.5622 4.50812 17.3672 3.70712 17.3672 2.71512C17.3672 1.73112 16.5622 0.930122 15.5742 0.930122ZM15.5742 5.50412C14.0352 5.50412 12.7852 4.25412 12.7852 2.71512C12.8242 1.20312 14.0622 0.00012207 15.5742 0.00012207C17.0902 0.00012207 18.3242 1.20312 18.3672 2.71512C18.3632 4.25812 17.1132 5.50412 15.5742 5.50412Z" fill="#1D1D1B"/>
</g>
</svg>
