<svg width="105" height="106" viewBox="0 0 105 106" fill="none" xmlns="http://www.w3.org/2000/svg">
<path fill-rule="evenodd" clip-rule="evenodd" d="M3.48925 70.9539C3.48925 69.9926 4.27256 69.2093 5.23382 69.2093H10.4675V88.3996H5.23382C4.27256 88.3996 3.48925 87.6163 3.48925 86.655V70.9539ZM3.48925 51.2926C3.46831 39.5237 7.93266 28.198 15.9804 19.6112L18.421 22.0711C11.0467 30.0176 6.95745 40.4641 6.97838 51.3066V65.7202H5.23382C4.64066 65.7272 4.04751 65.8283 3.48925 66.0342V51.2926ZM88.7149 19.6252C96.7487 28.212 101.213 39.5377 101.185 51.2926V66.0342C100.627 65.8283 100.034 65.7272 99.4405 65.7202H97.696V51.2926C97.7169 40.4588 93.6276 30.0106 86.2533 22.0711L88.7149 19.6252ZM101.185 86.655C101.185 87.6163 100.402 88.3996 99.4405 88.3996H94.2068V69.2093H99.4405C100.402 69.2093 101.185 69.9926 101.185 70.9539V86.655ZM5.23382 91.8887H10.4675C10.4745 94.7777 12.8122 97.1154 15.7012 97.1224H22.6795C25.5685 97.1154 27.9062 94.7777 27.9132 91.8887V65.7202C27.9062 62.8312 25.5685 60.4935 22.6795 60.4865H15.7012C12.8122 60.4935 10.4745 62.8312 10.4675 65.7202V51.3066C10.4605 41.3922 14.2026 31.8441 20.9349 24.5658C22.8295 26.5564 25.9506 26.7256 28.0493 24.9479C34.9124 19.3251 43.5323 16.2861 52.4052 16.3681C61.231 16.3 69.8038 19.3321 76.6251 24.9339C78.7238 26.7203 81.8518 26.5633 83.7603 24.5658C90.4787 31.8441 94.2068 41.3852 94.2068 51.2926V65.7202C94.1998 62.8312 91.8621 60.4935 88.9731 60.4865H81.9948C79.1058 60.4935 76.7681 62.8312 76.7611 65.7202V91.8887C76.7681 94.7777 79.1058 97.1154 81.9948 97.1224H88.9731C89.5663 97.1154 90.1594 97.0143 90.7177 96.8084V97.1224C90.7107 100.011 88.373 102.349 85.484 102.356H59.3154C56.4264 102.349 54.0887 100.011 54.0817 97.1224V76.5348C60.3918 76.2015 66.4438 73.9389 71.4245 70.0467C73.1691 68.5691 74.1652 66.3884 74.1443 64.0977V53.1069C74.1443 52.8139 73.9943 52.54 73.7483 52.3777C73.504 52.2207 73.19 52.1928 72.9248 52.3079L57.4679 59.1571C54.1969 60.6016 50.4775 60.6016 47.2064 59.1571L31.7495 52.3079C31.4843 52.1928 31.1703 52.2137 30.9261 52.3777C30.6801 52.54 30.5301 52.8139 30.5301 53.1069V64.0977C30.5091 66.3814 31.5053 68.5621 33.2498 70.0467C38.2306 73.9389 44.2825 76.2015 50.5926 76.5348V97.1224C50.5926 101.941 54.4969 105.845 59.3154 105.845H85.484C90.3025 105.845 94.2068 101.941 94.2068 97.1224V91.8887H99.4405C102.33 91.8817 104.667 89.544 104.674 86.655V51.2926C104.709 38.0182 99.4196 25.2811 90.0024 15.9319C79.9781 5.99661 66.3827 0.495988 52.2691 0.666955C38.2166 0.530879 24.6962 6.0158 14.7068 15.897C5.26871 25.2549 -0.0278033 38.0042 0.000109771 51.2926V86.655C0.00708805 89.544 2.34481 91.8817 5.23382 91.8887Z" fill="black"/>
<path fill-rule="evenodd" clip-rule="evenodd" d="M56.0514 55.9684C60.671 53.9238 76.2168 47.0484 80.5503 45.1189C82.52 44.2414 83.7935 42.284 83.7935 40.1242C83.7935 37.9714 82.52 36.0158 80.5503 35.1365L56.0514 24.2661C53.6875 23.2246 50.9886 23.2246 48.623 24.2661L24.124 35.1365C22.1544 36.0158 20.8809 37.9714 20.8809 40.1242C20.8809 42.284 22.1544 44.2414 24.124 45.1189C28.3703 47.0066 44.0976 53.9657 48.623 55.9684C50.9886 57.0187 53.6875 57.0187 56.0514 55.9684Z" fill="black"/>
</svg>
