<svg width="23" height="23" viewBox="0 0 23 23" fill="none" xmlns="http://www.w3.org/2000/svg">
<path fill-rule="evenodd" clip-rule="evenodd" d="M9.21846 22.771C8.81956 22.6926 8.5644 22.3052 8.64274 21.9092C8.72109 21.5103 9.10849 21.2551 9.50381 21.3335C14.6508 22.3383 19.7072 19.2225 21.1253 14.174C22.5405 9.12261 19.8394 3.83333 14.9174 2.01704C9.99902 0.20292 4.50993 2.46914 2.30624 7.22798C0.0989614 11.9868 1.92099 17.6412 6.48649 20.2187C6.83149 20.4185 6.95009 20.8591 6.75315 21.2041C6.55406 21.5498 6.11274 21.6677 5.76774 21.4707C0.573337 18.4807 -1.45713 12.0041 1.10449 6.5847C3.66756 1.16892 9.95949 -1.37474 15.5665 0.744857C21.1727 2.86158 24.2137 8.93286 22.5513 14.6908C20.8895 20.4494 15.0835 23.9641 9.20984 22.771H9.21846Z" fill="#202244"/>
<path fill-rule="evenodd" clip-rule="evenodd" d="M11.5175 4.31372C7.54786 4.31372 4.33002 7.53156 4.33002 11.5012C4.33002 15.4709 7.54786 18.6887 11.5175 18.6887C15.4872 18.6887 18.705 15.4709 18.705 11.5012C18.705 7.53156 15.4872 4.31372 11.5175 4.31372ZM11.5175 20.1262C6.75292 20.1262 2.89252 16.2658 2.89252 11.5012C2.89252 6.73663 6.75292 2.87622 11.5175 2.87622C16.2821 2.87622 20.1425 6.73663 20.1425 11.5012C20.1425 16.2658 16.2821 20.1262 11.5175 20.1262Z" fill="#202244"/>
<path fill-rule="evenodd" clip-rule="evenodd" d="M11.5175 17.2513C11.1215 17.2513 10.7988 16.9286 10.7988 16.5325C10.7988 16.1365 11.1215 15.8138 11.5175 15.8138C11.9136 15.8138 12.2363 16.1365 12.2363 16.5325C12.2363 16.9286 11.9136 17.2513 11.5175 17.2513ZM11.5175 14.3763C11.1215 14.3763 10.7988 14.0536 10.7988 13.6575C10.7988 12.6441 11.4083 11.7284 12.3427 11.336C13.4208 10.909 13.9685 9.7044 13.5811 8.6119C13.1937 7.51725 12.0113 6.92787 10.9052 7.27287C9.79901 7.62147 9.16507 8.78081 9.46767 9.89847C9.56901 10.283 9.33614 10.6762 8.95161 10.7739C8.56707 10.8752 8.17392 10.6424 8.07545 10.2578C7.59532 8.39915 8.66195 6.49231 10.4955 5.92809C12.329 5.361 14.2833 6.3349 14.9345 8.1404C15.5857 9.9459 14.7045 11.9447 12.9328 12.6807C12.5224 12.8324 12.2449 13.2198 12.2363 13.6575C12.2363 14.0536 11.9136 14.3763 11.5175 14.3763Z" fill="#202244"/>
</svg>
