<svg width="132" height="117" viewBox="0 0 132 117" fill="none" xmlns="http://www.w3.org/2000/svg">
<path fill-rule="evenodd" clip-rule="evenodd" d="M112.111 0.0908813L106.01 11.5909L92.3522 13.6002L102.219 23.2226L99.8816 36.7236L112.095 30.3442L124.306 36.7236L121.962 23.2226L131.597 13.6002L118.217 11.5909L112.111 0.0908813ZM19.7182 0.0908813L13.6065 11.5909L0.000976562 13.6002L9.82616 23.2226L7.48434 36.7236L19.6911 30.3442L31.902 36.7236L29.5602 23.2226L39.4753 13.6002L25.8195 11.5909L19.7182 0.0908813Z" fill="#FFB62A"/>
<path fill-rule="evenodd" clip-rule="evenodd" d="M19.7178 0.0908813V30.3442L31.9287 36.7236L29.5848 23.2226L39.4748 13.6002L25.819 11.5909L19.7178 0.0908813Z" fill="#FFB62A"/>
<path fill-rule="evenodd" clip-rule="evenodd" d="M84.4089 51.5682C82.5961 51.5682 81.1659 50.1485 81.1659 48.3273V45.0927H48.6585V48.3273C48.6585 50.1485 47.2409 51.5682 45.4197 51.5682H35.6719V80.2367C35.6719 97.4637 47.3601 112.541 64.1291 116.763L64.9049 116.951L65.6743 116.763C82.4497 112.541 94.1358 97.4469 94.1358 80.2367V51.5682H84.4089Z" fill="#F5F5F5"/>
<path fill-rule="evenodd" clip-rule="evenodd" d="M94.1526 51.5682V80.2367C94.1526 97.4637 82.4645 112.541 65.6975 116.763L64.9238 116.951V45.0676H81.166V48.3106C81.166 50.1317 82.5962 51.5536 84.409 51.5536H94.1526V51.5682Z" fill="#E7E7F2"/>
<path fill-rule="evenodd" clip-rule="evenodd" d="M84.4089 58.0707C80.1873 58.0707 76.5513 55.3337 75.2528 51.568H54.5967C53.2334 55.4571 49.5597 58.0707 45.4323 58.0707H42.1997V80.2532C42.1997 94.2288 51.4771 106.521 64.9446 110.302C78.3892 106.536 87.6916 94.2288 87.6916 80.2532V58.0707H84.4089Z" fill="#26BFA6"/>
<path fill-rule="evenodd" clip-rule="evenodd" d="M87.6512 58.0707V80.2532C87.6512 94.2288 78.3654 106.521 64.9062 110.302V51.568H75.2291C76.5296 55.3337 80.172 58.0707 84.3914 58.0707H87.6512Z" fill="#26BFA6"/>
<path fill-rule="evenodd" clip-rule="evenodd" d="M85.6623 13.6001L72.0066 11.5907L65.9053 0.0906982L59.7957 11.5907L46.1504 13.6001L56.0132 23.2224L53.6693 36.7234L65.8802 30.3441L78.0911 36.7234L75.7556 23.2224L85.6623 13.6001Z" fill="#FFB62A"/>
<path fill-rule="evenodd" clip-rule="evenodd" d="M76.9273 76.8082L64.9046 88.8937L61.6637 92.1387L52.8818 83.2921L57.4421 78.736L61.6637 82.8907L64.9046 79.6477L72.3691 72.2479L76.9273 76.8082Z" fill="#F5F5F5"/>
<path fill-rule="evenodd" clip-rule="evenodd" d="M78.1172 36.7236L65.9062 30.3442V0.0908813L72.0054 11.5909L85.6612 13.6002L75.7963 23.2226L78.1172 36.7236Z" fill="#FFB62A"/>
<path fill-rule="evenodd" clip-rule="evenodd" d="M76.927 76.8082L64.9043 88.8936V79.6748L72.3688 72.2751L76.927 76.8082Z" fill="#E7E7F2"/>
</svg>
