<svg width="20" height="18" viewBox="0 0 20 18" fill="none" xmlns="http://www.w3.org/2000/svg">
<path fill-rule="evenodd" clip-rule="evenodd" d="M4.293 5.38724C4.48 5.36724 4.668 5.42224 4.812 5.54324L8.969 8.85924C9.488 9.26924 10.219 9.26924 10.738 8.85924L14.852 5.54324H14.859L14.949 5.48424C15.246 5.30924 15.633 5.37124 15.859 5.64824C15.981 5.79724 16.031 5.98824 16.012 6.17624C15.988 6.36724 15.895 6.53924 15.746 6.65624L11.633 9.98024C10.586 10.8282 9.094 10.8282 8.051 9.98024L3.926 6.65624L3.852 6.58224C3.617 6.32424 3.602 5.93024 3.82 5.64824C3.938 5.50024 4.109 5.40624 4.293 5.38724ZM14.195 0.000244141C17.398 0.0122441 19.992 2.62124 20 5.84424V7.30924L19.992 7.40224C19.945 7.75024 19.652 8.02024 19.293 8.02024L19.285 8.00424L19.172 7.99224C19.027 7.96924 18.891 7.89824 18.781 7.79324C18.652 7.66024 18.574 7.47724 18.574 7.28924V5.84424C18.551 3.41824 16.606 1.45724 14.195 1.43424H5.805C3.395 1.45724 1.449 3.41824 1.426 5.84424V12.1562C1.449 14.5822 3.395 16.5432 5.805 16.5662H14.195C16.606 16.5432 18.551 14.5822 18.574 12.1562C18.617 11.7892 18.922 11.5122 19.289 11.5122C19.652 11.5122 19.961 11.7892 20 12.1562C19.992 15.3792 17.398 17.9882 14.195 18.0002H5.805C2.602 17.9962 0.004 15.3792 0 12.1562V5.84424C0 2.61724 2.598 0.000244141 5.805 0.000244141H14.195Z" fill="#200E32"/>
</svg>
