<svg width="20" height="18" viewBox="0 0 20 18" fill="none" xmlns="http://www.w3.org/2000/svg">
<path fill-rule="evenodd" clip-rule="evenodd" d="M13.391 13.5L14.8499 9.6048L16.3088 13.5H13.391ZM15.7499 7.2H13.9499L9.89994 18H11.6999L12.7088 15.3H16.9838L17.9999 18H19.7999L15.7499 7.2ZM10.6838 11.763L8.39514 9.5031L8.42304 9.4779C9.99174 7.731 11.1059 5.7231 11.7629 3.6H14.3999V1.8H8.09994V0H6.29994V1.8H-6.10352e-05V3.5892H10.0547C9.44994 5.3298 8.49684 6.975 7.19994 8.4168C6.36294 7.488 5.67084 6.4719 5.12184 5.4H3.32184C3.97974 6.8661 4.87974 8.2548 6.00474 9.5031L1.42014 14.0202L2.69994 15.3L7.19994 10.8L9.99804 13.5981L10.6838 11.763Z" fill="#1D1D1B"/>
</svg>
