<svg width="16" height="20" viewBox="0 0 16 20" fill="none" xmlns="http://www.w3.org/2000/svg">
<path fill-rule="evenodd" clip-rule="evenodd" d="M14.8678 18.4615C14.8678 18.7469 14.6362 18.9785 14.3508 18.9785H5.12006V4.09846H14.8678V18.4615ZM1.0216 17.9446V3.84615L1.22929 3.95462L1.43621 4.02308H1.50545L1.68237 4.06231H4.09852V18.9785H2.04314C1.47852 18.9723 1.0216 18.5123 1.0216 17.9446ZM2.04314 1.02154H13.5816C13.4101 1.33692 13.3201 1.69462 13.3293 2.05538C13.3293 2.41308 13.4254 2.76769 13.6054 3.07692H2.06698C1.53545 3.03154 1.12698 2.58385 1.12698 2.04923C1.12698 1.51462 1.53545 1.07 2.06698 1.02154H2.04314ZM15.3847 3.07692C14.9939 3.11 14.6216 2.92385 14.417 2.59C14.2124 2.26 14.2124 1.84231 14.417 1.50846C14.6216 1.17769 14.9939 0.988462 15.3847 1.02154C15.6431 0.991539 15.8354 0.772308 15.8354 0.510769C15.8354 0.252308 15.6431 0.0330769 15.3847 0H2.04314C0.913138 0.00307692 6.10352e-05 0.922308 6.10352e-05 2.05538V17.9446C6.10352e-05 19.0777 0.913138 19.9969 2.04314 20H14.3508C15.2016 20 15.8893 19.3115 15.8893 18.4615V3.59385C15.8893 3.31154 15.6639 3.08 15.3847 3.07692Z" fill="black"/>
<path fill-rule="evenodd" clip-rule="evenodd" d="M6.65862 17.9446H9.23093C9.48939 17.9146 9.6817 17.6954 9.6817 17.4339C9.6817 17.1754 9.48939 16.9562 9.23093 16.9231H6.65862C6.40016 16.9562 6.20785 17.1754 6.20785 17.4339C6.20785 17.6954 6.40016 17.9146 6.65862 17.9446ZM6.65862 15.9016H10.2525C10.5379 15.9016 10.7694 15.67 10.7694 15.3846C10.7694 15.0993 10.5379 14.8677 10.2525 14.8677H6.65862C6.37631 14.8677 6.14478 15.0993 6.14478 15.3846C6.14478 15.67 6.37631 15.9016 6.65862 15.9016ZM6.65862 13.8462H9.23093C9.48939 13.8131 9.6817 13.5939 9.6817 13.3354C9.6817 13.0739 9.48939 12.8546 9.23093 12.8246H6.65862C6.40016 12.8546 6.20785 13.0739 6.20785 13.3354C6.20785 13.5939 6.40016 13.8131 6.65862 13.8462ZM7.17554 7.94464H12.8125V6.40618H7.17554V7.94464ZM6.65862 8.97849H13.3294C13.6148 8.97849 13.8463 8.74695 13.8463 8.46157V5.90157C13.8463 5.61618 13.6148 5.38464 13.3294 5.38464H6.65862C6.37939 5.38772 6.15401 5.61926 6.15401 5.90157V8.46157C6.15401 8.74387 6.37939 8.97234 6.65862 8.97849Z" fill="black"/>
</svg>
