<svg width="20" height="20" viewBox="0 0 20 20" fill="none" xmlns="http://www.w3.org/2000/svg">
<mask id="mask0_104_1764" style="mask-type:luminance" maskUnits="userSpaceOnUse" x="0" y="0" width="20" height="20">
<path fill-rule="evenodd" clip-rule="evenodd" d="M0.00012207 0H20V19.9999H0.00012207V0Z" fill="white"/>
</mask>
<g mask="url(#mask0_104_1764)">
<path fill-rule="evenodd" clip-rule="evenodd" d="M1.04941 11.342L19.6208 1.34202C19.908 1.18845 20.053 0.856306 19.9751 0.541306C19.8966 0.222735 19.6123 0.00273507 19.2858 -0.00012207H15.0001V1.42845H16.4287L0.379408 10.0863L1.04941 11.342ZM15.7144 18.5713H18.5716V7.14274H15.7144V18.5713ZM19.2858 5.71416H15.0001C14.6066 5.71416 14.2858 6.03488 14.2858 6.42845V19.2856C14.2858 19.6792 14.6066 19.9999 15.0001 19.9999H19.2858C19.6794 19.9999 20.0001 19.6792 20.0001 19.2856V6.42845C20.0001 6.03488 19.6794 5.71416 19.2858 5.71416ZM8.57155 18.5713H11.4287V9.99988H8.57155V18.5713ZM7.85726 8.57131C7.46298 8.57131 7.14298 8.89202 7.14298 9.28559V19.2856C7.14298 19.6792 7.46298 19.9999 7.85726 19.9999H12.143C12.5366 19.9999 12.8573 19.6792 12.8573 19.2856V9.28559C12.8573 8.89202 12.5366 8.57131 12.143 8.57131H7.85726ZM1.42869 18.5713H4.28584V14.2856H1.42869V18.5713ZM0.714408 19.9999H5.00012C5.39369 19.9999 5.71441 19.6792 5.71441 19.2856V13.5713C5.71441 13.1777 5.39369 12.857 5.00012 12.857H0.714408C0.320122 12.857 0.00012207 13.1777 0.00012207 13.5713V19.2856C0.00012207 19.6792 0.320122 19.9999 0.714408 19.9999Z" fill="#1D1D1B"/>
</g>
</svg>
