<svg width="28" height="28" viewBox="0 0 28 28" fill="none" xmlns="http://www.w3.org/2000/svg">
<circle cx="14" cy="14" r="12" fill="#E8F1FF"/>
<circle cx="14" cy="14" r="13" stroke="#B4BDC4" stroke-opacity="0.5" stroke-width="2"/>
<path fill-rule="evenodd" clip-rule="evenodd" d="M10.9999 14.4989C10.9999 13.6708 10.3293 13.0002 9.50124 13.0002C8.67321 13.0002 7.99988 13.6708 7.99988 14.4989C7.99988 15.3269 8.67321 16.0002 9.50124 16.0002C10.3293 16.0002 10.9999 15.3269 10.9999 14.4989ZM17.5437 14.4989C17.5437 15.3269 18.2143 15.9968 19.0424 15.9968C19.8704 15.9968 20.541 15.3269 20.541 14.4989C20.541 13.6708 19.8704 13.0002 19.0424 13.0002C18.2143 13.0002 17.5437 13.6708 17.5437 14.4989ZM15.7704 14.4989C15.7704 13.6708 15.0998 13.0002 14.2718 13.0002C13.4438 13.0002 12.7704 13.6708 12.7704 14.4989C12.7704 15.3269 13.4438 16.0002 14.2718 16.0002C15.0998 16.0002 15.7704 15.3269 15.7704 14.4989Z" fill="#1D1D1B"/>
</svg>
