<svg width="15" height="23" viewBox="0 0 15 23" fill="none" xmlns="http://www.w3.org/2000/svg">
<path fill-rule="evenodd" clip-rule="evenodd" d="M2.63542 1.4375C1.97321 1.4375 1.4375 1.97321 1.4375 2.63542V19.8854C1.4375 20.5476 1.97321 21.0833 2.63542 21.0833H12.2188C12.881 21.0833 13.4167 20.5476 13.4167 19.8854V2.63542C13.4167 1.97321 12.881 1.4375 12.2188 1.4375H2.63542ZM0 2.63542C0 1.17875 1.17875 0 2.63542 0H12.2188C13.6754 0 14.8542 1.17875 14.8542 2.63542V19.8854C14.8542 21.3421 13.6754 22.5208 12.2188 22.5208H2.63542C1.17875 22.5208 0 21.3421 0 19.8854V2.63542Z" fill="#1D1D1B"/>
<path fill-rule="evenodd" clip-rule="evenodd" d="M4.79168 18.9271C4.79168 18.5303 5.11368 18.2083 5.51043 18.2083H9.34377C9.74052 18.2083 10.0625 18.5303 10.0625 18.9271C10.0625 19.3238 9.74052 19.6458 9.34377 19.6458H5.51043C5.11368 19.6458 4.79168 19.3238 4.79168 18.9271ZM4.75814 1.4375L4.93064 1.78537C4.97185 1.86396 5.05331 1.91667 5.14339 1.91667H9.71081C9.80089 1.91667 9.88235 1.86396 9.92356 1.78537L10.0961 1.4375H4.75814ZM2.98331 0.340208C3.1146 0.131292 3.34268 0 3.59377 0H11.2604C11.5077 0 11.7396 0.131292 11.8709 0.340208C12.0012 0.553917 12.0127 0.8165 11.9044 1.04075L11.2077 2.42554C10.9269 2.99479 10.3433 3.35417 9.71081 3.35417H5.14339C4.51089 3.35417 3.92727 2.99479 3.64648 2.42554L2.94977 1.04075C2.83764 0.8165 2.85298 0.550083 2.98331 0.340208Z" fill="#1D1D1B"/>
</svg>
