<svg width="21" height="20" viewBox="0 0 21 20" fill="none" xmlns="http://www.w3.org/2000/svg">
<path fill-rule="evenodd" clip-rule="evenodd" d="M15.9987 9.17105C16.3464 9.17105 16.6278 9.46 16.6278 9.81905C16.6278 10.1743 16.3464 10.4623 15.9987 10.4623H15.7098C15.3621 10.4623 15.0769 10.1743 15.0769 9.81905C15.0769 9.46 15.3621 9.17105 15.7098 9.17105H15.9987ZM14.4668 1C17.4899 1 19.9474 3.51621 19.9474 6.60653V13.3935C19.9474 16.4838 17.4899 19 14.4668 19C14.1192 19 13.834 18.7111 13.834 18.352C13.834 17.9967 14.1192 17.7087 14.4668 17.7087C16.7907 17.7087 18.6855 15.7733 18.6855 13.3935V7.97547H15.5734C14.5521 7.97926 13.7194 8.83095 13.7194 9.874C13.7194 10.9218 14.5521 11.7725 15.5734 11.7725H16.8646C17.2161 11.7725 17.4975 12.0653 17.4975 12.4205C17.4975 12.7758 17.2161 13.0676 16.8646 13.0676H15.5734C13.8558 13.0638 12.4575 11.6361 12.4537 9.874C12.4575 8.11663 13.8558 6.68421 15.5734 6.68421H18.6855V6.60653C18.6855 4.22674 16.7907 2.29126 14.4668 2.29126H6.48053C4.60474 2.29126 3.03211 3.55695 2.48358 5.28874H10.81C11.1586 5.28874 11.44 5.57768 11.44 5.93674C11.44 6.292 11.1586 6.58095 10.81 6.58095H2.26568L2.26189 6.60653V13.3935C2.26189 15.7733 4.15284 17.7087 6.48053 17.7087H10.4993C10.8479 17.7087 11.1283 17.9967 11.1283 18.352C11.1283 18.7111 10.8479 19 10.4993 19H6.48053C3.45747 19 1 16.4838 1 13.3935V6.60653C1 3.51621 3.45747 1 6.48053 1H14.4668Z" fill="white"/>
<path d="M18.6855 7.97547H18.7855V7.87547H18.6855V7.97547ZM15.5734 7.97547V7.87547L15.573 7.87547L15.5734 7.97547ZM15.5734 13.0676L15.5731 13.1676H15.5734V13.0676ZM12.4537 9.874L12.3537 9.87378L12.3537 9.87421L12.4537 9.874ZM18.6855 6.68421V6.78421H18.7855V6.68421H18.6855ZM2.48358 5.28874L2.38825 5.25854L2.34701 5.38874H2.48358V5.28874ZM2.26568 6.58095V6.48095H2.17941L2.16676 6.56629L2.26568 6.58095ZM2.26189 6.60653L2.16297 6.59187L2.16189 6.59916V6.60653H2.26189ZM15.9987 9.27105C16.2885 9.27105 16.5278 9.5125 16.5278 9.81905H16.7278C16.7278 9.4075 16.4043 9.07105 15.9987 9.07105V9.27105ZM16.5278 9.81905C16.5278 10.1212 16.2891 10.3623 15.9987 10.3623V10.5623C16.4038 10.5623 16.7278 10.2274 16.7278 9.81905H16.5278ZM15.9987 10.3623H15.7098V10.5623H15.9987V10.3623ZM15.7098 10.3623C15.4187 10.3623 15.1769 10.1204 15.1769 9.81905H14.9769C14.9769 10.2282 15.3055 10.5623 15.7098 10.5623V10.3623ZM15.1769 9.81905C15.1769 9.51329 15.4192 9.27105 15.7098 9.27105V9.07105C15.305 9.07105 14.9769 9.40671 14.9769 9.81905H15.1769ZM15.7098 9.27105H15.9987V9.07105H15.7098V9.27105ZM14.4668 1.1C17.4325 1.1 19.8474 3.56926 19.8474 6.60653H20.0474C20.0474 3.46316 17.5473 0.9 14.4668 0.9V1.1ZM19.8474 6.60653V13.3935H20.0474V6.60653H19.8474ZM19.8474 13.3935C19.8474 16.4307 17.4325 18.9 14.4668 18.9V19.1C17.5473 19.1 20.0474 16.5368 20.0474 13.3935H19.8474ZM14.4668 18.9C14.1763 18.9 13.934 18.6578 13.934 18.352H13.734C13.734 18.7643 14.062 19.1 14.4668 19.1V18.9ZM13.934 18.352C13.934 18.0506 14.1757 17.8087 14.4668 17.8087V17.6087C14.0626 17.6087 13.734 17.9429 13.734 18.352H13.934ZM14.4668 17.8087C16.848 17.8087 18.7855 15.8264 18.7855 13.3935H18.5855C18.5855 15.7201 16.7334 17.6087 14.4668 17.6087V17.8087ZM18.7855 13.3935V7.97547H18.5855V13.3935H18.7855ZM18.6855 7.87547H15.5734V8.07547H18.6855V7.87547ZM15.573 7.87547C14.4948 7.87948 13.6194 8.77772 13.6194 9.874H13.8194C13.8194 8.88417 14.6094 8.07905 15.5737 8.07547L15.573 7.87547ZM13.6194 9.874C13.6194 10.9748 14.4947 11.8725 15.5734 11.8725V11.6725C14.6095 11.6725 13.8194 10.8687 13.8194 9.874H13.6194ZM15.5734 11.8725H16.8646V11.6725H15.5734V11.8725ZM16.8646 11.8725C17.1582 11.8725 17.3975 12.1178 17.3975 12.4205H17.5975C17.5975 12.0128 17.274 11.6725 16.8646 11.6725V11.8725ZM17.3975 12.4205C17.3975 12.7231 17.1584 12.9676 16.8646 12.9676V13.1676C17.2738 13.1676 17.5975 12.8285 17.5975 12.4205H17.3975ZM16.8646 12.9676H15.5734V13.1676H16.8646V12.9676ZM15.5736 12.9676C13.9132 12.9639 12.5574 11.583 12.5537 9.87379L12.3537 9.87421C12.3576 11.6892 13.7984 13.1637 15.5731 13.1676L15.5736 12.9676ZM12.5537 9.87422C12.5574 8.16963 13.9133 6.78421 15.5734 6.78421V6.58421C13.7983 6.58421 12.3576 8.06364 12.3537 9.87378L12.5537 9.87422ZM15.5734 6.78421H18.6855V6.58421H15.5734V6.78421ZM18.7855 6.68421V6.60653H18.5855V6.68421H18.7855ZM18.7855 6.60653C18.7855 4.17361 16.848 2.19126 14.4668 2.19126V2.39126C16.7334 2.39126 18.5855 4.27986 18.5855 6.60653H18.7855ZM14.4668 2.19126H6.48053V2.39126H14.4668V2.19126ZM6.48053 2.19126C4.55768 2.19126 2.94886 3.48859 2.38825 5.25854L2.57891 5.31893C3.11535 3.6253 4.6518 2.39126 6.48053 2.39126V2.19126ZM2.48358 5.38874H10.81V5.18874H2.48358V5.38874ZM10.81 5.38874C11.1008 5.38874 11.34 5.63029 11.34 5.93674H11.54C11.54 5.52508 11.2165 5.18874 10.81 5.18874V5.38874ZM11.34 5.93674C11.34 6.23901 11.1012 6.48095 10.81 6.48095V6.68095C11.2161 6.68095 11.54 6.34499 11.54 5.93674H11.34ZM10.81 6.48095H2.26568V6.68095H10.81V6.48095ZM2.16676 6.56629L2.16297 6.59187L2.36082 6.62118L2.3646 6.5956L2.16676 6.56629ZM2.16189 6.60653V13.3935H2.36189V6.60653H2.16189ZM2.16189 13.3935C2.16189 15.8263 4.09547 17.8087 6.48053 17.8087V17.6087C4.21021 17.6087 2.36189 15.7202 2.36189 13.3935H2.16189ZM6.48053 17.8087H10.4993V17.6087H6.48053V17.8087ZM10.4993 17.8087C10.7904 17.8087 11.0283 18.0497 11.0283 18.352H11.2283C11.2283 17.9438 10.9053 17.6087 10.4993 17.6087V17.8087ZM11.0283 18.352C11.0283 18.6586 10.7899 18.9 10.4993 18.9V19.1C10.9059 19.1 11.2283 18.7635 11.2283 18.352H11.0283ZM10.4993 18.9H6.48053V19.1H10.4993V18.9ZM6.48053 18.9C3.51486 18.9 1.1 16.4307 1.1 13.3935H0.9C0.9 16.5368 3.40009 19.1 6.48053 19.1V18.9ZM1.1 13.3935V6.60653H0.9V13.3935H1.1ZM1.1 6.60653C1.1 3.56926 3.51486 1.1 6.48053 1.1V0.9C3.40009 0.9 0.9 3.46316 0.9 6.60653H1.1ZM6.48053 1.1H14.4668V0.9H6.48053V1.1Z" fill="white"/>
</svg>
