<svg width="27" height="21" viewBox="0 0 27 21" fill="none" xmlns="http://www.w3.org/2000/svg">
<path fill-rule="evenodd" clip-rule="evenodd" d="M21.7246 21H4.37513C1.95838 21 0.000127467 19.0413 0.000127467 16.625V4.375C-0.00162253 3.26069 0.422315 2.18925 1.18444 1.37725C1.51607 1.0255 2.0695 1.00844 2.42344 1.33831C2.77563 1.6695 2.79269 2.22337 2.46282 2.57731C2.00475 3.06425 1.75013 3.70694 1.75013 4.375V16.625C1.75013 18.0744 2.92394 19.25 4.37513 19.25H21.7246C23.1754 19.25 24.3496 18.0744 24.3496 16.625V4.375C24.3496 2.926 23.1754 1.75 21.7246 1.75H5.50825C5.02438 1.75 4.63325 1.35844 4.63325 0.875C4.63325 0.391562 5.02438 0 5.50825 0H21.7246C24.1409 0 26.0996 1.95869 26.0996 4.375V16.625C26.0996 19.0413 24.1409 21 21.7246 21Z" fill="white"/>
<path fill-rule="evenodd" clip-rule="evenodd" d="M9.93433 15.6629C9.20983 15.6629 8.62183 15.0749 8.62183 14.3504V6.64953C8.62358 6.1884 8.86639 5.76097 9.26101 5.52515C9.65739 5.28759 10.1496 5.27709 10.5565 5.49453L17.7358 9.34453C18.1615 9.57378 18.3186 10.1053 18.0898 10.531C17.8605 10.9563 17.329 11.1151 16.9037 10.8845L10.3718 7.38453V13.6189L14.3093 11.5067C14.5863 11.3408 14.9315 11.3391 15.2101 11.5049C15.4866 11.6707 15.6494 11.9748 15.6336 12.2981C15.6201 12.6192 15.4289 12.908 15.1366 13.0467L10.5565 15.5058C10.3648 15.6082 10.1513 15.6629 9.93433 15.6629Z" fill="white"/>
</svg>
