<svg width="13" height="16" viewBox="0 0 13 16" fill="none" xmlns="http://www.w3.org/2000/svg">
<path fill-rule="evenodd" clip-rule="evenodd" d="M9.4 4.83132H3.3752C3.0312 4.83132 2.7528 5.11292 2.7528 5.46572C2.7528 5.81612 3.0312 6.09692 3.3752 6.09692H9.4C9.744 6.09692 10.0248 5.81612 10.0248 5.46572C10.0248 5.11292 9.744 4.83132 9.4 4.83132ZM8.856 0.00012207C11.0248 0.00012207 12.7752 0.856122 12.8 3.03132V15.1753C12.8 15.3129 12.7688 15.4473 12.7032 15.5689C12.6 15.7593 12.4248 15.9033 12.2096 15.9689C12 16.0313 11.7688 16.0001 11.5752 15.8873L6.3904 13.2969L1.2 15.8873C1.0816 15.9497 0.944 15.9905 0.8096 15.9905C0.3592 15.9905 0 15.6249 0 15.1753V3.03132C0 0.856122 1.7592 0.00012207 3.9184 0.00012207H8.856Z" fill="#4AA6DD"/>
</svg>
