<svg width="16" height="20" viewBox="0 0 16 20" fill="none" xmlns="http://www.w3.org/2000/svg">
<path fill-rule="evenodd" clip-rule="evenodd" d="M11.3743 1H5.1661C2.6065 1 1 2.7856 1 5.6548V17.4916C1 18.325 1.6606 19 2.4733 19C2.719 19 2.962 18.937 3.1798 18.8173L8.2315 16.012L14.113 18.8344C14.2714 18.9019 14.4505 18.9019 14.6125 18.8344C14.77 18.7678 14.8969 18.6382 14.9635 18.4762C15.0625 18.1738 14.9428 17.8435 14.6791 17.6815L8.8363 14.887C8.452 14.6692 7.993 14.6692 7.6096 14.887L2.5507 17.6815C2.494 17.713 2.4238 17.713 2.3644 17.6815C2.3113 17.6464 2.2798 17.5834 2.2798 17.5132V5.6548C2.287 3.5344 3.3274 2.3257 5.1895 2.3257H11.395C13.7863 2.3257 14.1337 4.312 14.1337 5.5036V6.0445H7.4161C7.2469 6.0517 7.0858 6.1255 6.9661 6.2524C6.85 6.382 6.7906 6.5512 6.7969 6.7267C6.8032 7.075 7.0786 7.3531 7.4161 7.363H14.113V14.3137C14.113 14.6755 14.401 14.9707 14.7565 14.9707C15.1075 14.9707 15.3964 14.6827 15.4 14.3209V5.5036C15.4 2.7226 13.8637 1 11.3743 1Z" fill="#202244" stroke="#202244" stroke-width="0.6" stroke-linecap="round" stroke-linejoin="round"/>
</svg>
