<svg width="20" height="20" viewBox="0 0 20 20" fill="none" xmlns="http://www.w3.org/2000/svg">
<path fill-rule="evenodd" clip-rule="evenodd" d="M19.7549 18.6059L16.3169 15.2469L16.2389 15.1259C16.0869 14.9729 15.8839 14.8909 15.6689 14.8909C15.4579 14.8909 15.2509 14.9729 15.1029 15.1259C12.1809 17.8049 7.68089 17.9499 4.58289 15.4649C1.48489 12.9769 0.754889 8.63289 2.87589 5.30989C4.99689 1.98789 9.30989 0.719893 12.9539 2.34489C16.5989 3.96989 18.4459 7.98389 17.2669 11.7269C17.1849 12.0009 17.2509 12.2939 17.4499 12.5009C17.6459 12.7079 17.9429 12.7939 18.2239 12.7309C18.5049 12.6689 18.7319 12.4609 18.8179 12.1919C20.2239 7.75089 18.0989 2.96989 13.8179 0.940893C9.53589 -1.08511 4.37989 0.250893 1.68889 4.08589C-1.00311 7.92189 -0.425111 13.1019 3.05189 16.2819C6.52389 19.4579 11.8529 19.6759 15.5869 16.7939L18.6299 19.7699C18.9429 20.0789 19.4499 20.0789 19.7669 19.7699C20.0789 19.4609 20.0789 18.9609 19.7669 18.6489L19.7549 18.6059Z" fill="#200E32"/>
</svg>
