<svg width="22" height="22" viewBox="0 0 22 22" fill="none" xmlns="http://www.w3.org/2000/svg">
<path fill-rule="evenodd" clip-rule="evenodd" d="M15.9152 16.6182C15.7834 16.6172 15.6564 16.5645 15.5627 16.4717L14.1309 15.0362C13.9504 14.839 13.9572 14.5352 14.1457 14.3457C14.3342 14.1562 14.6389 14.1495 14.8362 14.3292L15.9152 15.4112L18.1232 13.1992C18.2472 13.0625 18.4357 13.006 18.6144 13.0517C18.7932 13.0967 18.9317 13.2365 18.9767 13.4142C19.0217 13.5927 18.9649 13.7822 18.8282 13.9052L16.2687 16.4717C16.1749 16.5655 16.0479 16.6182 15.9152 16.6182ZM12.4619 16.675C12.0294 16.883 11.5764 17.044 11.1094 17.1553C11.0304 17.175 10.9484 17.175 10.8704 17.1553C7.95515 16.4455 6.12415 14.2402 5.2659 10.415C5.20615 10.1465 5.37615 9.88 5.6444 9.82125C5.91315 9.76175 6.1799 9.93175 6.23815 10.2005C7.33115 15.0705 9.9669 15.9005 10.9882 16.1553C11.3782 16.0625 11.7559 15.9288 12.1174 15.755C12.1954 16.0743 12.3117 16.383 12.4619 16.675ZM19.3332 11.2002C18.6047 10.597 17.7032 10.2393 16.7589 10.18C16.9094 9.4755 17.0197 8.763 17.0879 8.04525C17.1047 7.90825 17.0607 7.7715 16.9679 7.67025C16.8799 7.5645 16.7512 7.501 16.6134 7.495C14.4639 7.40525 12.5567 6.50975 11.3789 5.03525C11.2814 4.921 11.1397 4.8555 10.9894 4.8555C10.8399 4.8555 10.6974 4.921 10.6007 5.03525C9.42315 6.50975 7.51665 7.40525 5.3654 7.495C5.08915 7.50575 4.87415 7.73825 4.8859 8.01475C4.89665 8.291 5.12915 8.50575 5.4054 8.495C7.62615 8.40525 9.62715 7.54 10.9894 6.1055C12.3362 7.46975 14.1289 8.30375 16.0392 8.455C15.9669 9.05175 15.8644 9.6445 15.7307 10.2305C13.5684 10.6015 11.9884 12.4768 11.9874 14.67C11.9874 15.0352 12.0304 15.3995 12.1174 15.755C12.1964 16.0743 12.3117 16.383 12.4619 16.675C12.8927 17.543 13.5929 18.2482 14.4582 18.6847C13.3889 19.3252 12.2139 19.7688 10.9894 19.9953C4.8264 18.7853 1.8019 13.42 2.0069 4.04525C2.0099 3.99325 2.04215 3.94725 2.08915 3.92675C2.1359 3.90525 2.19165 3.913 2.23165 3.94525C3.0539 4.4925 4.02365 4.7755 5.0109 4.755C6.87315 4.755 8.3944 3.88475 8.89365 2.54C8.9904 2.23175 9.2694 2.0155 9.5929 2H12.3927C12.7139 2.0175 12.9904 2.23275 13.0862 2.54C13.3567 3.2305 13.8644 3.80075 14.5187 4.1505C15.2687 4.56075 16.1134 4.7685 16.9679 4.755C17.9562 4.7755 18.9259 4.4925 19.7482 3.94525C19.7717 3.92575 19.8019 3.915 19.8332 3.915C19.9074 3.913 19.9689 3.97075 19.9727 4.04525C20.0617 6.44725 19.8469 8.8515 19.3332 11.2002ZM16.7989 18.1505C16.6924 18.1642 16.5862 18.171 16.4787 18.17C16.1212 18.172 15.7657 18.1163 15.4259 18.005C14.5012 17.715 13.7404 17.049 13.3302 16.17C13.1769 15.8625 13.0754 15.5312 13.0304 15.1905C13.0002 15.0188 12.9844 14.8448 12.9854 14.67C12.9864 13.1418 13.9777 11.79 15.4347 11.3302H15.4407C15.7754 11.2238 16.1262 11.17 16.4777 11.17H16.5237C17.4807 11.1827 18.3897 11.59 19.0382 12.295C19.3409 12.6173 19.5764 12.9963 19.7317 13.4102C19.8907 13.8115 19.9719 14.2382 19.9719 14.67C19.9719 16.4757 18.5969 17.9845 16.7989 18.1505ZM20.9709 4.0195C20.9582 3.40225 20.4504 2.9095 19.8322 2.915C19.5949 2.916 19.3624 2.99125 19.1692 3.13C18.5147 3.555 17.7482 3.7725 16.9689 3.755C15.8762 3.75 14.4484 3.34475 14.0247 2.19525C13.7872 1.4925 13.1349 1.014 12.3927 1H9.5929C8.8499 1.014 8.1954 1.49125 7.95615 2.19525C7.5314 3.34475 6.10465 3.755 5.0119 3.755C4.23265 3.7715 3.4659 3.55375 2.81165 3.13C2.6184 2.99125 2.3859 2.916 2.14865 2.915C1.5304 2.9095 1.02265 3.40225 1.0099 4.0195C0.790153 14.005 4.1194 19.715 10.9017 20.9953C10.9309 20.999 10.9612 21.001 10.9914 21C11.0227 21.001 11.0549 20.999 11.0862 20.9953C12.7364 20.709 14.3029 20.0597 15.6719 19.0947C15.9387 19.1455 16.2092 19.17 16.4807 19.17C18.9622 19.1642 20.9709 17.1515 20.9719 14.67C20.9737 13.7423 20.6857 12.837 20.1487 12.0802C20.7667 9.8095 21.0402 7.12325 20.9709 4.0195Z" fill="#202244"/>
<path d="M15.5627 16.4717L15.421 16.613L15.422 16.6139L15.5627 16.4717ZM14.1309 15.0362L13.9832 15.1714L13.9893 15.1775L14.1309 15.0362ZM14.8362 14.3292L14.9779 14.1879L14.9709 14.1814L14.8362 14.3292ZM15.9152 15.4112L15.7735 15.5525L15.9151 15.6944L16.0567 15.5525L15.9152 15.4112ZM18.1232 13.1992L18.2649 13.3407L18.2713 13.3336L18.1232 13.1992ZM18.6144 13.0517L18.5648 13.2455L18.5656 13.2457L18.6144 13.0517ZM18.9767 13.4142L19.1706 13.3654L19.1705 13.3652L18.9767 13.4142ZM18.8282 13.9052L18.6942 13.7563L18.6865 13.764L18.8282 13.9052ZM16.2687 16.4717L16.4101 16.6132L16.4103 16.613L16.2687 16.4717ZM11.1094 17.1553L11.0631 16.9607L11.0609 16.9612L11.1094 17.1553ZM10.8704 17.1553L10.9195 16.9614L10.9177 16.9609L10.8704 17.1553ZM5.2659 10.415L5.07068 10.4584L5.07075 10.4588L5.2659 10.415ZM5.6444 9.82125L5.68719 10.0166L5.68763 10.0165L5.6444 9.82125ZM6.23815 10.2005L6.04269 10.2429L6.04301 10.2443L6.23815 10.2005ZM10.9882 16.1553L10.9397 16.3493L10.987 16.3611L11.0344 16.3498L10.9882 16.1553ZM12.1174 15.755L12.3117 15.7075L12.2531 15.4679L12.0308 15.5747L12.1174 15.755ZM16.7589 10.18L16.5633 10.1382L16.5149 10.3651L16.7464 10.3796L16.7589 10.18ZM17.0879 8.04525L16.8893 8.02097L16.8888 8.02632L17.0879 8.04525ZM16.9679 7.67025L16.814 7.79832L16.8204 7.80535L16.9679 7.67025ZM16.6134 7.495L16.6221 7.29519L16.6217 7.29517L16.6134 7.495ZM11.3789 5.03525L11.5353 4.91036L11.531 4.90542L11.3789 5.03525ZM10.6007 5.03525L10.448 4.90595L10.4444 4.91045L10.6007 5.03525ZM5.3654 7.495L5.37318 7.69485L5.37374 7.69483L5.3654 7.495ZM4.8859 8.01475L5.08575 8.00697L5.08572 8.00626L4.8859 8.01475ZM5.4054 8.495L5.41318 8.69485L5.41348 8.69484L5.4054 8.495ZM10.9894 6.1055L11.1317 5.96499L10.9866 5.81799L10.8444 5.96778L10.9894 6.1055ZM16.0392 8.455L16.2377 8.47904L16.2628 8.27208L16.0549 8.25562L16.0392 8.455ZM15.7307 10.2305L15.7645 10.4276L15.896 10.4051L15.9256 10.275L15.7307 10.2305ZM11.9874 14.67L11.7874 14.6699V14.67H11.9874ZM12.1174 15.755L11.9231 15.8025L11.9233 15.803L12.1174 15.755ZM12.4619 16.675L12.6411 16.5861L12.6397 16.5835L12.4619 16.675ZM14.4582 18.6847L14.5609 18.8563L14.8724 18.6697L14.5482 18.5062L14.4582 18.6847ZM10.9894 19.9953L10.9509 20.1915L10.9883 20.1989L11.0258 20.1919L10.9894 19.9953ZM2.0069 4.04525L1.80711 4.03372L1.80695 4.04088L2.0069 4.04525ZM2.08915 3.92675L2.16913 4.11011L2.17272 4.10846L2.08915 3.92675ZM2.23165 3.94525L2.10612 4.10095L2.11323 4.10668L2.12084 4.11175L2.23165 3.94525ZM5.0109 4.755V4.55496L5.00675 4.55504L5.0109 4.755ZM8.89365 2.54L9.0814 2.6097L9.08447 2.59989L8.89365 2.54ZM9.5929 2V1.79977L9.58333 1.80023L9.5929 2ZM12.3927 2L12.4035 1.8H12.3927V2ZM13.0862 2.54L12.8952 2.5995L12.8973 2.60631L12.8999 2.61295L13.0862 2.54ZM14.5187 4.1505L14.6146 3.97503L14.6129 3.97412L14.5187 4.1505ZM16.9679 4.755L16.9721 4.55491L16.9647 4.55503L16.9679 4.755ZM19.7482 3.94525L19.859 4.11175L19.8677 4.1059L19.8759 4.09916L19.7482 3.94525ZM19.8332 3.915V4.11507L19.8385 4.11493L19.8332 3.915ZM19.9727 4.04525L20.1725 4.03784L20.1724 4.0352L19.9727 4.04525ZM16.4787 18.17L16.4805 17.97L16.4775 17.97L16.4787 18.17ZM15.4259 18.005L15.4881 17.8149L15.4857 17.8142L15.4259 18.005ZM13.3302 16.17L13.5114 16.0854L13.5092 16.0808L13.3302 16.17ZM13.0304 15.1905L13.2289 15.1643L13.2274 15.1558L13.0304 15.1905ZM12.9854 14.67L13.1854 14.6711L13.1854 14.6701L12.9854 14.67ZM15.4347 11.3302V11.1302H15.4038L15.3745 11.1395L15.4347 11.3302ZM15.4407 11.3302V11.5303H15.4717L15.5013 11.5208L15.4407 11.3302ZM16.5237 11.17L16.5263 10.97H16.5237V11.17ZM19.0382 12.295L18.8909 12.4304L18.8924 12.4319L19.0382 12.295ZM19.7317 13.4102L19.5444 13.4805L19.5457 13.4839L19.7317 13.4102ZM19.8322 2.915L19.833 3.115L19.8339 3.11499L19.8322 2.915ZM19.1692 3.13L19.2782 3.29792L19.2858 3.29246L19.1692 3.13ZM16.9689 3.755L16.9734 3.55502L16.9698 3.555L16.9689 3.755ZM14.0247 2.19525L13.8351 2.25931L13.837 2.26443L14.0247 2.19525ZM12.3927 1L12.3964 0.8H12.3927V1ZM9.5929 1V0.799965L9.58914 0.800035L9.5929 1ZM7.95615 2.19525L8.14382 2.26459L8.14552 2.2596L7.95615 2.19525ZM5.0119 3.755V3.55496L5.00767 3.55504L5.0119 3.755ZM2.81165 3.13L2.69487 3.29265L2.70293 3.29787L2.81165 3.13ZM2.14865 2.915L2.14687 3.11499L2.14781 3.115L2.14865 2.915ZM1.0099 4.0195L1.20985 4.0239L1.20986 4.02363L1.0099 4.0195ZM10.9017 20.9953L10.8645 21.1921L10.8762 21.1936L10.9017 20.9953ZM10.9914 21L10.9978 20.7997L10.9848 20.8001L10.9914 21ZM11.0862 20.9953L11.11 21.1941L11.1203 21.1923L11.0862 20.9953ZM15.6719 19.0947L15.7093 18.8983L15.626 18.8824L15.5567 18.9313L15.6719 19.0947ZM16.4807 19.17V19.37L16.4811 19.37L16.4807 19.17ZM20.9719 14.67L20.7719 14.6696V14.6699L20.9719 14.67ZM20.1487 12.0802L19.9557 12.0277L19.9309 12.1189L19.9855 12.196L20.1487 12.0802ZM15.9167 16.4183C15.8371 16.4177 15.76 16.3857 15.7033 16.3296L15.422 16.6139C15.5528 16.7433 15.7297 16.8168 15.9136 16.8182L15.9167 16.4183ZM15.7043 16.3305L14.2725 14.895L13.9893 15.1775L15.421 16.613L15.7043 16.3305ZM14.2785 14.9012C14.1702 14.783 14.1741 14.6008 14.2874 14.4868L14.0039 14.2047C13.7402 14.4697 13.7306 14.895 13.9834 15.1713L14.2785 14.9012ZM14.2874 14.4868C14.4001 14.3735 14.583 14.3691 14.7014 14.4771L14.9709 14.1814C14.6948 13.9299 14.2682 13.939 14.0039 14.2047L14.2874 14.4868ZM14.6945 14.4705L15.7735 15.5525L16.0568 15.27L14.9778 14.188L14.6945 14.4705ZM16.0567 15.5525L18.2647 13.3405L17.9816 13.058L15.7736 15.27L16.0567 15.5525ZM18.2713 13.3336C18.3454 13.2518 18.4578 13.2181 18.5648 13.2455L18.664 12.858C18.4135 12.7939 18.1489 12.8732 17.975 13.0649L18.2713 13.3336ZM18.5656 13.2457C18.6724 13.2726 18.7556 13.3562 18.7828 13.4633L19.1705 13.3652C19.1077 13.1168 18.9139 12.9209 18.6632 12.8578L18.5656 13.2457ZM18.7827 13.4631C18.8098 13.5705 18.7754 13.6837 18.6944 13.7565L18.9619 14.0539C19.1544 13.8808 19.2335 13.615 19.1706 13.3654L18.7827 13.4631ZM18.6865 13.764L16.127 16.3305L16.4103 16.613L18.9698 14.0465L18.6865 13.764ZM16.1272 16.3303C16.0709 16.3867 15.9947 16.4183 15.9152 16.4183V16.8182C16.1011 16.8182 16.2789 16.7443 16.4101 16.6132L16.1272 16.3303ZM12.3752 16.4948C11.9556 16.6966 11.5161 16.8528 11.0631 16.9607L11.1558 17.3498C11.6367 17.2352 12.1032 17.0694 12.5486 16.8552L12.3752 16.4948ZM11.0609 16.9612C11.0135 16.9731 10.9651 16.9729 10.9195 16.9614L10.8213 17.3491C10.9317 17.3771 11.0473 17.3769 11.1579 17.3493L11.0609 16.9612ZM10.9177 16.9609C9.50009 16.6158 8.35147 15.9094 7.45058 14.8256C6.54732 13.7389 5.88561 12.2635 5.46105 10.3712L5.07075 10.4588C5.50444 12.3918 6.18736 13.9316 7.14297 15.0813C8.10096 16.2338 9.32547 16.985 10.8231 17.3496L10.9177 16.9609ZM5.46113 10.3716C5.42539 10.2109 5.52728 10.0516 5.68719 10.0166L5.60161 9.62588C5.22502 9.70836 4.98692 10.0821 5.07068 10.4584L5.46113 10.3716ZM5.68763 10.0165C5.8488 9.98084 6.00804 10.083 6.04269 10.2429L6.43361 10.1581C6.35176 9.78049 5.9775 9.54266 5.60117 9.62598L5.68763 10.0165ZM6.04301 10.2443C6.59676 12.7116 7.54631 14.1754 8.50476 15.0559C9.46303 15.9362 10.414 16.2182 10.9397 16.3493L11.0366 15.9612C10.541 15.8376 9.66353 15.5772 8.77536 14.7613C7.88737 13.9456 6.97255 12.5594 6.4333 10.1567L6.04301 10.2443ZM11.0344 16.3498C11.4383 16.2538 11.8296 16.1152 12.204 15.9353L12.0308 15.5747C11.6822 15.7423 11.318 15.8712 10.9419 15.9607L11.0344 16.3498ZM11.9231 15.8025C12.0049 16.1373 12.1268 16.4608 12.2841 16.7665L12.6397 16.5835C12.4965 16.3052 12.3859 16.0112 12.3117 15.7075L11.9231 15.8025ZM19.4607 11.0462C18.6997 10.416 17.758 10.0423 16.7714 9.98039L16.7464 10.3796C17.6483 10.4362 18.5096 10.778 19.2056 11.3543L19.4607 11.0462ZM16.9545 10.2218C17.1066 9.50985 17.218 8.78972 17.287 8.06418L16.8888 8.02632C16.8213 8.73628 16.7122 9.44115 16.5633 10.1382L16.9545 10.2218ZM17.2864 8.06952C17.3103 7.87445 17.2476 7.67948 17.1154 7.53515L16.8204 7.80535C16.8737 7.86352 16.899 7.94205 16.8894 8.02098L17.2864 8.06952ZM17.1216 7.54232C16.9973 7.39296 16.8158 7.30363 16.6221 7.29519L16.6047 7.69481C16.6865 7.69837 16.7625 7.73604 16.8142 7.79818L17.1216 7.54232ZM16.6217 7.29517C14.521 7.20746 12.6715 6.33304 11.5352 4.91043L11.2226 5.16007C12.4418 6.68646 14.4068 7.60304 16.6051 7.69483L16.6217 7.29517ZM11.531 4.90542C11.3956 4.74672 11.1983 4.6555 10.9894 4.6555V5.0555C11.081 5.0555 11.1672 5.09528 11.2268 5.16508L11.531 4.90542ZM10.9894 4.6555C10.7816 4.6555 10.5831 4.74652 10.448 4.906L10.7533 5.1645C10.8117 5.09548 10.8982 5.0555 10.9894 5.0555V4.6555ZM10.4444 4.91045C9.30832 6.33304 7.45957 7.20746 5.35707 7.29517L5.37374 7.69483C7.57373 7.60304 9.53798 6.68646 10.7569 5.16005L10.4444 4.91045ZM5.35763 7.29515C4.97102 7.3102 4.66962 7.63581 4.68608 8.02324L5.08572 8.00626C5.07869 7.84069 5.20729 7.7013 5.37318 7.69485L5.35763 7.29515ZM4.68605 8.02253C4.70111 8.40933 5.02674 8.70989 5.41318 8.69485L5.39763 8.29515C5.23157 8.30161 5.0922 8.17267 5.08575 8.00697L4.68605 8.02253ZM5.41348 8.69484C7.68019 8.60323 9.73239 7.71962 11.1344 6.24322L10.8444 5.96778C9.52191 7.36038 7.57212 8.20727 5.39733 8.29516L5.41348 8.69484ZM10.8471 6.24601C12.2276 7.64443 14.0652 8.49933 16.0234 8.65438L16.0549 8.25562C14.1926 8.10817 12.4447 7.29507 11.1317 5.96499L10.8471 6.24601ZM15.8406 8.43096C15.7692 9.02099 15.6678 9.60691 15.5357 10.186L15.9256 10.275C16.061 9.68209 16.1646 9.08251 16.2377 8.47904L15.8406 8.43096ZM15.6968 10.0334C13.4385 10.4209 11.7884 12.3794 11.7874 14.6699L12.1874 14.6701C12.1884 12.5741 13.6983 10.7821 15.7645 10.4276L15.6968 10.0334ZM11.7874 14.67C11.7874 15.0509 11.8323 15.4312 11.9231 15.8025L12.3117 15.7075C12.2286 15.3678 12.1874 15.0196 12.1874 14.67H11.7874ZM11.9233 15.803C12.0059 16.1371 12.1266 16.4605 12.2841 16.7665L12.6397 16.5835C12.4967 16.3055 12.3869 16.0114 12.3115 15.707L11.9233 15.803ZM12.2828 16.7639C12.7327 17.6706 13.4642 18.4073 14.3681 18.8633L14.5482 18.5062C13.7216 18.0892 13.0526 17.4154 12.6411 16.5861L12.2828 16.7639ZM14.3554 18.5132C13.3066 19.1414 12.1541 19.5764 10.953 19.7986L11.0258 20.1919C12.2737 19.9611 13.4712 19.5091 14.5609 18.8563L14.3554 18.5132ZM11.0279 19.799C8.00228 19.205 5.7558 17.5959 4.28441 14.9839C2.80807 12.363 2.10476 8.71855 2.20685 4.04962L1.80695 4.04088C1.70405 8.7467 2.41048 12.4722 3.9359 15.1802C5.46626 17.8969 7.81352 19.5755 10.9509 20.1915L11.0279 19.799ZM2.20657 4.05677C2.20524 4.07986 2.19134 4.10037 2.16911 4.11007L2.00919 3.74343C1.89296 3.79413 1.81457 3.90664 1.80723 4.03373L2.20657 4.05677ZM2.17272 4.10846C2.14825 4.11971 2.12329 4.11479 2.10612 4.10095L2.35718 3.78955C2.26001 3.71121 2.12356 3.69079 2.00559 3.74504L2.17272 4.10846ZM2.12084 4.11175C2.97701 4.68157 3.98686 4.97631 5.01505 4.95496L5.00675 4.55504C4.06045 4.57469 3.1308 4.30343 2.34246 3.77875L2.12084 4.11175ZM5.0109 4.955C6.92608 4.955 8.5434 4.05804 9.08115 2.60961L8.70616 2.47039C8.2454 3.71146 6.82022 4.555 5.0109 4.555V4.955ZM9.08447 2.59989C9.15619 2.3714 9.36301 2.21124 9.60247 2.19977L9.58333 1.80023C9.17579 1.81976 8.82461 2.0921 8.70283 2.48011L9.08447 2.59989ZM9.5929 2.2H12.3927V1.8H9.5929V2.2ZM12.3818 2.1997C12.6196 2.21266 12.8243 2.37201 12.8952 2.5995L13.2771 2.4805C13.1565 2.09349 12.8082 1.82234 12.4035 1.8003L12.3818 2.1997ZM12.8999 2.61295C13.1878 3.3479 13.7283 3.95476 14.4244 4.32688L14.6129 3.97412C14.0005 3.64674 13.5255 3.1131 13.2724 2.46705L12.8999 2.61295ZM14.4227 4.32597C15.2032 4.75291 16.0821 4.96902 16.9711 4.95498L16.9647 4.55503C16.1447 4.56798 15.3341 4.36859 14.6146 3.97503L14.4227 4.32597ZM16.9638 4.95496C17.9929 4.97631 19.0028 4.68158 19.859 4.11175L19.6373 3.77875C18.849 4.30342 17.9194 4.57469 16.9721 4.55504L16.9638 4.95496ZM19.8759 4.09916C19.8625 4.11026 19.8473 4.115 19.8332 4.115V3.715C19.7565 3.715 19.6808 3.74124 19.6204 3.79134L19.8759 4.09916ZM19.8385 4.11493C19.8023 4.1159 19.7745 4.08736 19.7729 4.0553L20.1724 4.0352C20.1633 3.85414 20.0125 3.7101 19.8278 3.71507L19.8385 4.11493ZM19.7728 4.05266C19.8612 6.43783 19.6479 8.82523 19.1378 11.1575L19.5285 11.243C20.0459 8.87777 20.2621 6.45667 20.1725 4.03784L19.7728 4.05266ZM16.7733 17.9521C16.6754 17.9648 16.5783 17.9709 16.4805 17.97L16.4768 18.37C16.594 18.3711 16.7094 18.3637 16.8245 18.3489L16.7733 17.9521ZM16.4775 17.97C16.1416 17.9719 15.8075 17.9195 15.4881 17.8149L15.3637 18.1951C15.7238 18.313 16.1007 18.3721 16.4798 18.37L16.4775 17.97ZM15.4857 17.8142C14.6146 17.541 13.8979 16.9136 13.5114 16.0854L13.1489 16.2546C13.5829 17.1844 14.3877 17.889 15.3661 18.1958L15.4857 17.8142ZM13.5092 16.0808C13.3657 15.793 13.2708 15.4831 13.2287 15.1643L12.8321 15.2167C12.88 15.5794 12.9881 15.932 13.1512 16.2592L13.5092 16.0808ZM13.2274 15.1558C13.1991 14.9951 13.1845 14.8331 13.1854 14.6711L12.7854 14.6689C12.7843 14.8564 12.8012 15.0424 12.8334 15.2252L13.2274 15.1558ZM13.1854 14.6701C13.1863 13.2291 14.1211 11.9545 15.4948 11.521L15.3745 11.1395C13.8342 11.6255 12.7865 13.0544 12.7854 14.6699L13.1854 14.6701ZM15.4347 11.5303H15.4407V11.1302H15.4347V11.5303ZM15.5013 11.5208C15.8162 11.4207 16.1465 11.37 16.4777 11.37V10.97C16.1059 10.97 15.7346 11.0268 15.38 11.1397L15.5013 11.5208ZM16.4777 11.37H16.5237V10.97H16.4777V11.37ZM16.521 11.37C17.4228 11.382 18.2796 11.7658 18.891 12.4304L19.1854 12.1596C18.4997 11.4142 17.5385 10.9835 16.5263 10.97L16.521 11.37ZM18.8924 12.4319C19.177 12.7349 19.3984 13.0912 19.5444 13.4805L19.9189 13.34C19.7544 12.9013 19.5048 12.4996 19.1839 12.1581L18.8924 12.4319ZM19.5457 13.4839C19.6954 13.8617 19.7719 14.2634 19.7719 14.67H20.1719C20.1719 14.2131 20.0859 13.7613 19.9176 13.3366L19.5457 13.4839ZM19.7719 14.67C19.7719 16.3725 18.4755 17.7949 16.7805 17.9513L16.8173 18.3497C18.7183 18.1741 20.1719 16.579 20.1719 14.67H19.7719ZM21.1709 4.01537C21.1558 3.28845 20.558 2.70853 19.8304 2.71501L19.8339 3.11499C20.3428 3.11047 20.7605 3.51605 20.7709 4.02363L21.1709 4.01537ZM19.8313 2.715C19.5525 2.71618 19.2795 2.80454 19.0525 2.96754L19.2858 3.29246C19.4453 3.17796 19.6373 3.11582 19.833 3.115L19.8313 2.715ZM19.0602 2.96226C18.4394 3.36537 17.7125 3.57165 16.9734 3.55505L16.9644 3.95495C17.7838 3.97335 18.5899 3.74463 19.2781 3.29774L19.0602 2.96226ZM16.9698 3.555C16.4447 3.5526 15.8434 3.4536 15.3279 3.22189C14.8132 2.99055 14.4 2.63509 14.2123 2.12607L13.837 2.26443C14.0731 2.90491 14.5856 3.32683 15.1639 3.58673C15.7414 3.84627 16.4003 3.9524 16.968 3.955L16.9698 3.555ZM14.2141 2.13122C13.9497 1.34866 13.2232 0.81563 12.3964 0.800036L12.3889 1.19996C13.0466 1.21237 13.6247 1.63634 13.8352 2.25928L14.2141 2.13122ZM12.3927 0.8H9.5929V1.2H12.3927V0.8ZM9.58914 0.800035C8.76203 0.81562 8.03321 1.34696 7.76679 2.1309L8.14552 2.2596C8.3576 1.63554 8.93777 1.21238 9.59667 1.19996L9.58914 0.800035ZM7.76855 2.12593C7.58035 2.63526 7.16685 2.99196 6.65235 3.22385C6.13703 3.4561 5.5363 3.555 5.0119 3.555V3.955C5.58026 3.955 6.23927 3.84877 6.81671 3.58852C7.39495 3.32791 7.90721 2.90474 8.14375 2.26457L7.76855 2.12593ZM5.00767 3.55504C4.26842 3.5707 3.54103 3.36412 2.92038 2.96213L2.70293 3.29787C3.39078 3.74338 4.19688 3.9723 5.01614 3.95496L5.00767 3.55504ZM2.9283 2.96754C2.70128 2.80454 2.4283 2.71618 2.1495 2.715L2.14781 3.115C2.3435 3.11582 2.53552 3.17796 2.69501 3.29246L2.9283 2.96754ZM2.15043 2.71501C1.4228 2.70853 0.824961 3.28845 0.809945 4.01537L1.20986 4.02363C1.22034 3.51605 1.63801 3.11047 2.14687 3.11499L2.15043 2.71501ZM0.809951 4.0151C0.699653 9.02709 1.47881 12.9926 3.15723 15.8725C4.84062 18.7611 7.41956 20.5415 10.8646 21.1918L10.9388 20.7987C7.60149 20.1688 5.12469 18.4541 3.50282 15.6711C1.876 12.8797 1.1004 8.99741 1.20985 4.0239L0.809951 4.0151ZM10.8762 21.1936C10.9136 21.1984 10.9548 21.2013 10.998 21.1999L10.9848 20.8001C10.9675 20.8007 10.9482 20.7996 10.9271 20.7969L10.8762 21.1936ZM10.985 21.1999C11.0287 21.2013 11.0713 21.1985 11.11 21.1938L11.0623 20.7967C11.0385 20.7995 11.0166 20.8007 10.9978 20.8001L10.985 21.1999ZM11.1203 21.1923C12.7998 20.901 14.3939 20.2403 15.7871 19.2582L15.5567 18.9313C14.2119 19.8792 12.673 20.517 11.052 20.7982L11.1203 21.1923ZM15.6345 19.2912C15.9141 19.3444 16.1971 19.37 16.4807 19.37V18.97C16.2212 18.97 15.9632 18.9466 15.7093 18.8983L15.6345 19.2912ZM16.4811 19.37C19.0729 19.364 21.1709 17.2618 21.1719 14.6701L20.7719 14.6699C20.7709 17.0412 18.8514 18.9645 16.4802 18.97L16.4811 19.37ZM21.1719 14.6704C21.1737 13.701 20.8728 12.7551 20.3118 11.9645L19.9855 12.196C20.4985 12.9189 20.7736 13.7835 20.7719 14.6696L21.1719 14.6704ZM20.3416 12.1328C20.966 9.8386 21.2404 7.13223 21.1709 4.01504L20.771 4.02396C20.8399 7.11427 20.5673 9.7804 19.9557 12.0277L20.3416 12.1328Z" fill="#202244"/>
</svg>
