<svg width="16" height="18" viewBox="0 0 16 18" fill="none" xmlns="http://www.w3.org/2000/svg">
<path fill-rule="evenodd" clip-rule="evenodd" d="M9.16557 7.94495C9.16029 8.30061 8.97414 8.63256 8.65992 8.82848V10.5294C8.65992 10.8751 8.36552 11.1534 7.99982 11.1534C7.63412 11.1534 7.33971 10.8751 7.33971 10.5294V8.82848C7.0255 8.63256 6.83935 8.30061 6.83406 7.94495C6.83406 7.33597 7.35555 6.84304 7.99982 6.84304C8.64408 6.84304 9.16557 7.33597 9.16557 7.94495ZM14.4728 10.2998C14.0649 12.9466 10.9135 15.2815 9.07711 16.442C8.42229 16.8563 7.57735 16.8563 6.92252 16.442C5.0861 15.2815 1.93474 12.9466 1.53339 10.3734L1.32084 4.2274C1.3116 3.94786 1.49643 3.69953 1.78028 3.61217C3.81737 3.05061 5.78185 2.29063 7.64864 1.33971C7.86515 1.20868 8.13448 1.20868 8.35099 1.33971C10.2178 2.29063 12.1875 3.05061 14.2246 3.61217C14.5032 3.69953 14.6894 3.94786 14.6788 4.2274L14.4728 10.2998ZM14.6167 2.42166C12.6826 1.89129 10.8158 1.16999 9.03619 0.27773C8.40248 -0.0929022 7.59715 -0.0929022 6.96345 0.27773C5.18379 1.16999 3.31701 1.89129 1.38289 2.42166C0.537951 2.67623 -0.024461 3.43122 0.000623142 4.26983L0.217139 10.4807C0.708259 13.6055 4.16855 16.2087 6.19508 17.4803C7.28822 18.1729 8.71141 18.1729 9.80455 17.4803C11.8324 16.2087 15.2927 13.6055 15.7878 10.4121L15.999 4.26983C16.0241 3.43122 15.463 2.67623 14.6167 2.42166Z" fill="#202244"/>
</svg>
