<svg width="16" height="16" viewBox="0 0 16 16" fill="none" xmlns="http://www.w3.org/2000/svg">
<path fill-rule="evenodd" clip-rule="evenodd" d="M8 1.33333C4.318 1.33333 1.33333 4.318 1.33333 8C1.33333 11.682 4.318 14.6667 8 14.6667C11.682 14.6667 14.6667 11.682 14.6667 8C14.6667 4.318 11.682 1.33333 8 1.33333ZM8 16C3.58067 16 0 12.4193 0 8C0 3.58067 3.58067 0 8 0C12.4193 0 16 3.58067 16 8C16 12.4193 12.4193 16 8 16Z" fill="#111224"/>
<path fill-rule="evenodd" clip-rule="evenodd" d="M11.3333 11.6667C11.1693 11.6667 11.008 11.604 10.8853 11.492L7.55198 8.492C7.41398 8.36733 7.33331 8.18733 7.33331 8V4.66667C7.33331 4.29933 7.63265 4 7.99998 4C8.36731 4 8.66665 4.29933 8.66665 4.66667V7.70067L11.7813 10.5C11.9893 10.6847 12.06 10.9793 11.9606 11.2393C11.862 11.4973 11.612 11.6693 11.3333 11.6667Z" fill="#111224"/>
</svg>
