<svg width="19" height="18" viewBox="0 0 19 18" fill="none" xmlns="http://www.w3.org/2000/svg">
<path fill-rule="evenodd" clip-rule="evenodd" d="M3.99196 1.07463C5.23988 1.07463 6.25352 2.08961 6.25352 3.33618C6.25352 4.58301 5.23988 5.59773 3.99196 5.59773C2.7454 5.59773 1.73149 4.58301 1.73149 3.33618C1.73149 2.08961 2.7454 1.07463 3.99196 1.07463ZM3.99196 6.67236C5.83173 6.67236 7.32814 5.17594 7.32814 3.33618C7.32814 1.49669 5.83173 0 3.99196 0C2.15355 0 0.65686 1.49669 0.65686 3.33618C0.65686 5.17594 2.15247 6.67236 3.99196 6.67236Z" fill="#1D1D1B"/>
<path fill-rule="evenodd" clip-rule="evenodd" d="M2.78197 3.33617L2.78116 3.26497C2.78009 3.23462 2.78009 3.23462 2.78627 3.19888C2.81367 3.053 2.71803 2.91223 2.57322 2.88509C2.42734 2.85769 2.28683 2.95226 2.25835 3.09814C2.24465 3.15886 2.24062 3.22091 2.24385 3.28271L2.24465 3.33617C2.24895 3.48097 2.36743 3.5965 2.51331 3.5965C2.65838 3.5965 2.77686 3.48205 2.78197 3.33617Z" fill="#1D1D1B"/>
<path fill-rule="evenodd" clip-rule="evenodd" d="M2.76198 2.78219C2.85225 2.78219 2.93634 2.73813 2.98551 2.66264C3.2101 2.32682 3.58784 2.12533 3.99189 2.12533C4.141 2.12533 4.26055 2.00551 4.26055 1.85667C4.26055 1.70864 4.141 1.58801 3.99189 1.58801C3.40864 1.58801 2.86381 1.8787 2.53954 2.36336C2.485 2.44637 2.47963 2.55222 2.52584 2.63954C2.57204 2.72765 2.66339 2.78219 2.76198 2.78219Z" fill="#1D1D1B"/>
<path fill-rule="evenodd" clip-rule="evenodd" d="M11.5145 1.07463C12.7624 1.07463 13.776 2.08961 13.776 3.33618C13.776 4.58301 12.7624 5.59773 11.5145 5.59773C10.2676 5.59773 9.25291 4.58301 9.25291 3.33618C9.25372 2.08961 10.2676 1.07463 11.5145 1.07463ZM11.5145 6.67236C13.3542 6.67236 14.8506 5.17594 14.8506 3.33618C14.8506 1.49669 13.3542 0 11.5145 0C9.6747 0 8.17828 1.49669 8.17828 3.33618C8.17909 5.17594 9.67578 6.67236 11.5145 6.67236Z" fill="#1D1D1B"/>
<path fill-rule="evenodd" clip-rule="evenodd" d="M10.2845 2.78219C10.3748 2.78219 10.4586 2.73813 10.508 2.66264C10.7326 2.32682 11.1104 2.12533 11.5144 2.12533C11.6635 2.12533 11.7831 2.00551 11.7831 1.85667C11.7831 1.70864 11.6635 1.58801 11.5144 1.58801C10.9309 1.58801 10.3863 1.8787 10.0621 2.36336C10.0065 2.44637 10.0011 2.55222 10.0484 2.63954C10.0946 2.72765 10.1859 2.78219 10.2845 2.78219Z" fill="#1D1D1B"/>
<path fill-rule="evenodd" clip-rule="evenodd" d="M17.2255 16.1656C17.1511 16.149 17.0713 16.1237 17.0157 16.106C13.4015 14.2033 13.2755 14.2001 13.1159 14.2001C12.9679 14.2001 12.8263 14.2547 12.7244 14.3627C12.6226 14.4699 12.5702 14.601 12.5796 14.749L12.6584 16.0482C12.6511 16.4649 12.3078 16.7336 11.8712 16.7336H1.89436C1.43791 16.7336 1.07469 16.5404 1.07469 16.1237V9.10075C1.07469 8.64645 1.47445 8.13762 1.89436 8.13762V8.13654H11.8712C12.2933 8.13654 12.65 8.55833 12.6584 8.99597L12.5796 10.1555C12.5692 10.3046 12.6216 10.4513 12.7223 10.5606C12.8241 10.6697 12.9668 10.7318 13.1159 10.7318C13.291 10.7318 13.3383 10.7318 17.0482 8.74612C17.1216 8.71147 17.1772 8.69051 17.2183 8.67896C17.2244 8.72732 17.2287 8.7977 17.2266 8.90356L17.2255 16.1656ZM17.9611 7.86251C17.7849 7.68305 17.5656 7.5866 17.2981 7.5866C17.0807 7.5866 16.8467 7.64436 16.5622 7.78164C15.6168 8.28645 14.669 8.78508 13.7193 9.28021L13.7319 9.07872C13.733 9.06636 13.7341 9.02633 13.7341 9.01263C13.7341 7.96756 12.8988 7.06299 11.8712 7.06299H1.89436C0.884748 7.06299 6.10352e-05 8.05567 6.10352e-05 9.10075V16.1237C6.10352e-05 17.129 0.850091 17.8082 1.89436 17.8082H11.8712C12.9071 17.8082 13.7193 17.0705 13.733 16.0565C13.7319 16.0587 13.7319 16.0595 13.7319 16.0576L13.7048 15.6106C14.4183 15.9684 15.5276 16.5436 16.555 17.085C16.5842 17.1005 16.6116 17.1145 16.6431 17.1239C16.9233 17.2099 17.1457 17.2698 17.3609 17.2709C17.744 17.2676 17.9759 17.0809 18.0882 16.9246C18.2225 16.7397 18.2687 16.5004 18.2687 16.1772V8.92048C18.2687 8.70636 18.2959 8.20263 17.9611 7.86251Z" fill="#1D1D1B"/>
<path fill-rule="evenodd" clip-rule="evenodd" d="M13.7319 16.0575L13.733 16.0408C13.733 16.047 13.7319 16.0521 13.7319 16.0575Z" fill="#1D1D1B"/>
<path fill-rule="evenodd" clip-rule="evenodd" d="M17.3682 17.272L17.361 17.2709L17.3524 17.272H17.3682Z" fill="#1D1D1B"/>
<path fill-rule="evenodd" clip-rule="evenodd" d="M4.86731 8.67383H2.58588C2.04642 8.67383 1.612 9.33902 1.612 9.83657V11.2019C1.612 11.3499 1.73155 11.4692 1.88066 11.4692C2.02869 11.4692 2.14931 11.3499 2.14931 11.2005V9.83523C2.14931 9.58565 2.38976 9.21222 2.58588 9.21222H4.86731C5.01642 9.21222 5.13597 9.09132 5.13597 8.94248C5.13597 8.79446 5.01642 8.67383 4.86731 8.67383Z" fill="#1D1D1B"/>
<path fill-rule="evenodd" clip-rule="evenodd" d="M6.21059 8.67493H5.94194C5.79391 8.67493 5.67328 8.79448 5.67328 8.94358C5.67328 9.09134 5.79391 9.21224 5.94194 9.21224H6.21059C6.3597 9.21224 6.47925 9.09134 6.47925 8.94358C6.47925 8.79448 6.3597 8.67493 6.21059 8.67493Z" fill="#1D1D1B"/>
</svg>
