<svg width="23" height="21" viewBox="0 0 23 21" fill="none" xmlns="http://www.w3.org/2000/svg">
<path fill-rule="evenodd" clip-rule="evenodd" d="M3.85908 15.8234L3.33169 17.7764C3.20366 18.2498 3.91527 18.4397 4.04256 17.9685L4.57014 16.0155C4.69742 15.5456 3.98582 15.3527 3.85908 15.8234Z" fill="#1D1D1B"/>
<path fill-rule="evenodd" clip-rule="evenodd" d="M6.62801 9.47592C7.71817 8.1765 10.0914 3.90503 11.1679 3.90503C11.4449 3.90503 12.2617 4.01666 12.9251 4.22739C8.55154 8.59024 10.9807 6.17395 4.95151 12.1549C4.85867 12.2464 4.83988 12.3759 4.8069 12.5003C4.62914 12.2464 4.46501 11.8556 4.64775 11.4002C4.96661 10.6057 6.0518 10.1639 6.62801 9.47592ZM17.3216 0.882131L18.6997 2.20034C14.8392 6.02989 16.2064 4.67576 12.3437 8.50679C11.899 8.52908 10.5289 8.60018 9.49782 8.68308C10.5462 7.64247 8.87538 9.30682 17.3216 0.882131ZM14.2858 14.1022C14.3426 13.7308 14.2541 13.2602 14.1296 12.9063C14.37 12.9019 15.6018 13.4458 15.8444 13.5516C15.4206 13.8568 14.7751 14.0799 14.2858 14.1022ZM10.8973 14.2654C11.3392 13.9331 11.6363 13.4438 11.7277 12.8984L13.3331 12.9142C13.5144 13.3351 13.6748 13.8308 13.4663 14.2389C12.8934 15.2852 11.4801 15.2693 10.8973 14.2654ZM7.17217 11.0016C7.25635 11.6139 7.67727 12.3148 8.16009 12.6565L7.62109 13.1905L6.28409 11.8701C7.31825 10.8446 7.04838 11.1066 7.17217 11.0016ZM6.88277 13.9229L5.06369 14.3864L5.5408 12.6075L5.76093 12.3888L7.09793 13.7093L6.88277 13.9229ZM10.2339 13.8165L10.2332 13.8172H10.2325C9.62935 14.1287 8.89122 13.9799 8.45575 13.4582L9.06456 12.8543C9.30348 12.8667 9.81503 12.8781 10.9765 12.8904C10.8735 13.2918 10.6031 13.6293 10.2339 13.8165ZM21.737 20.2616H0.850614L3.41298 10.8669H4.09014C3.57343 11.7751 3.89304 12.758 4.58014 13.3458L4.18943 14.8029C4.11888 15.07 4.36075 15.3253 4.63632 15.2555L7.1274 14.6209C7.20311 14.6095 7.27275 14.5734 7.32672 14.5202L7.90606 13.946C8.43493 14.5647 9.31711 14.9096 10.2431 14.6058C10.6994 15.3909 11.4097 15.7571 12.1818 15.7571C12.8783 15.7571 13.5584 15.4197 13.9706 14.8259C14.986 14.9411 16.2374 14.2986 16.5862 13.8798C17.5865 14.3208 18.4075 14.8318 21.7327 14.8707H21.7362C22.2212 14.8707 22.2247 14.1396 21.7406 14.1339C16.8524 14.0769 16.5927 12.6313 14.2354 12.1564L14.2326 12.1556C13.3554 11.983 10.3196 12.2514 8.99917 12.1133C8.2859 11.9412 7.80677 11.2563 7.89961 10.5497V10.5467C7.99393 9.96739 8.36161 9.57392 8.5659 9.52271C8.5659 9.52271 11.9911 9.29097 17.0799 8.74055C17.5642 8.68805 17.4843 7.95766 17 8.00813L13.5116 8.38576C15.2609 6.65013 16.1438 5.7731 16.33 5.58816C18.1052 6.04297 21.7362 7.31016 21.7362 7.31016C22.1492 7.31016 22.2485 6.72713 21.855 6.59266C20.4676 6.11924 18.8537 5.50324 16.9374 4.98505L19.4861 2.45731C19.6552 2.28747 19.615 2.05279 19.4819 1.92918L17.5707 0.101447C17.4268 -0.0374482 17.1943 -0.0317377 17.0562 0.10642L13.5015 3.65174C12.674 3.31868 11.514 3.16818 11.1679 3.16818C9.5308 3.16818 7.34625 7.47263 6.06322 9.0025C5.75596 9.36871 5.20259 9.68831 4.70835 10.1301H3.13169C2.96554 10.1301 2.82019 10.2417 2.77617 10.4021L0.013009 20.5337C-0.0172016 20.6444 0.00582476 20.7625 0.0756406 20.8539C0.145456 20.9452 0.253404 20.9985 0.368535 20.9985H21.737C22.2235 20.9985 22.2242 20.2616 21.737 20.2616Z" fill="#1D1D1B"/>
</svg>
